<svg width="13" height="17" fill="none" xmlns="http://www.w3.org/2000/svg"><path d="M6.071 0C2.724 0 0 2.681 0 5.977c0 1.113.313 2.2.906 3.142l4.82 7.646a.508.508 0 00.43.235h.004a.508.508 0 00.43-.242l4.697-7.72a5.9 5.9 0 00.856-3.061C12.143 2.68 9.419 0 6.07 0zm4.347 8.527l-4.27 7.018-4.382-6.95a4.917 4.917 0 01-.76-2.618C1.005 3.23 3.281.989 6.07.989c2.79 0 5.063 2.241 5.063 4.988 0 .9-.25 1.782-.716 2.55z" fill="#00B9BF"/><path d="M6.071 2.988c-1.673 0-3.035 1.34-3.035 2.989 0 1.637 1.34 2.988 3.035 2.988 1.717 0 3.036-1.37 3.036-2.988 0-1.648-1.362-2.989-3.036-2.989zm0 4.987c-1.121 0-2.03-.897-2.03-1.998 0-1.099.914-2 2.03-2 1.116 0 2.028.901 2.028 2A2.012 2.012 0 016.07 7.975z" fill="#00B9BF"/><path fill-rule="evenodd" clip-rule="evenodd" d="M10.418 8.527l-4.27 7.018-4.382-6.95a4.917 4.917 0 01-.76-2.618C1.005 3.23 3.281.989 6.07.989c2.79 0 5.063 2.241 5.063 4.988 0 .9-.25 1.782-.716 2.55zm-7.382-2.55c0-1.648 1.362-2.989 3.035-2.989 1.674 0 3.036 1.34 3.036 2.989 0 1.619-1.319 2.988-3.036 2.988-1.696 0-3.035-1.351-3.035-2.988z" fill="#00B9BF"/></svg>