<svg width="35" height="35" fill="none" xmlns="http://www.w3.org/2000/svg"><path fill-rule="evenodd" clip-rule="evenodd" d="M16.124.036C12.599.33 9.319 1.628 6.52 3.839c-.648.512-2.179 2.043-2.691 2.691C1.803 9.094.557 12.018.119 15.237c-.158 1.158-.158 3.361 0 4.52.53 3.894 2.194 7.275 4.939 10.037 1.042 1.05 1.576 1.495 2.695 2.25 5.14 3.47 11.83 3.918 17.447 1.168a17.552 17.552 0 009.578-12.908c.691-4.195-.25-8.726-2.545-12.257-.961-1.478-2.535-3.233-3.785-4.217-2.51-1.979-5.572-3.287-8.63-3.687-1.012-.132-2.78-.184-3.694-.107zm10.038 11.666c.054-.442-.058-.79-.326-1.017-.29-.243-.692-.225-1.429.063-.635.25-8.389 3.241-13.356 5.154-1.714.66-3.236 1.261-3.383 1.335-.615.312-.765.717-.383 1.038.122.102.537.277 1.01.424l2.305.72c.826.258 1.534.45 1.575.426.041-.024 2.347-1.473 5.125-3.22 3.104-1.953 5.123-3.182 5.24-3.19.133-.009.189.02.189.097 0 .061-1.819 1.752-4.041 3.758a40076.74 40076.74 0 00-4.093 3.694c-.028.026-.112.923-.186 1.995a183.595 183.595 0 01-.163 2.239c-.027.288-.025.29.194.29.276 0 .594-.23 1.268-.921.283-.29.752-.742 1.043-1.007l.53-.48 2.207 1.628c2.126 1.569 2.492 1.799 2.864 1.805.245.004.591-.228.724-.484.11-.214 3.002-13.653 3.086-14.347z" fill="#fff"/><path d="M25.836 10.685c.268.226.38.575.326 1.017-.084.694-2.976 14.133-3.086 14.347-.133.256-.48.488-.724.484-.372-.006-.738-.236-2.864-1.805L17.281 23.1l-.53.48c-.29.265-.76.717-1.043 1.007-.674.69-.992.922-1.268.922-.22 0-.221-.003-.194-.291.016-.16.09-1.168.163-2.24.074-1.07.158-1.968.186-1.994l4.093-3.694c2.223-2.006 4.041-3.697 4.041-3.758 0-.077-.056-.106-.19-.097-.116.008-2.135 1.237-5.239 3.19a3036.902 3036.902 0 01-5.125 3.22c-.04.023-.75-.168-1.575-.426l-2.305-.72c-.473-.147-.888-.322-1.01-.424-.382-.321-.232-.726.383-1.038.147-.074 1.669-.675 3.383-1.335a9406.043 9406.043 0 0013.356-5.153c.737-.29 1.14-.307 1.429-.064z" fill="#fff"/><path fill-rule="evenodd" clip-rule="evenodd" d="M16.124.036C12.599.33 9.319 1.628 6.52 3.839c-.648.512-2.179 2.043-2.691 2.691C1.803 9.094.557 12.018.119 15.237c-.158 1.158-.158 3.361 0 4.52.53 3.894 2.194 7.275 4.939 10.037 1.042 1.05 1.576 1.495 2.695 2.25 5.14 3.47 11.83 3.918 17.447 1.168a17.552 17.552 0 009.578-12.908c.691-4.195-.25-8.726-2.545-12.257-.961-1.478-2.535-3.233-3.785-4.217-2.51-1.979-5.572-3.287-8.63-3.687-1.012-.132-2.78-.184-3.694-.107zm9.712 10.65c.268.225.38.574.326 1.016-.084.694-2.976 14.133-3.086 14.347-.133.256-.48.488-.724.484-.372-.006-.738-.236-2.864-1.805L17.281 23.1l-.53.48c-.29.265-.76.717-1.043 1.007-.674.69-.992.922-1.268.922-.22 0-.221-.003-.194-.291.016-.16.09-1.168.163-2.24.074-1.07.158-1.968.186-1.994l4.093-3.694c2.223-2.006 4.041-3.697 4.041-3.758 0-.077-.056-.106-.19-.097-.116.008-2.135 1.237-5.239 3.19a3036.902 3036.902 0 01-5.125 3.22c-.04.023-.75-.168-1.575-.426l-2.305-.72c-.473-.147-.888-.322-1.01-.424-.382-.321-.232-.726.383-1.038.147-.074 1.669-.675 3.383-1.335a9406.043 9406.043 0 0013.356-5.153c.737-.29 1.14-.307 1.429-.064z" fill="#039BE5"/></svg>