<svg width="35" height="35" fill="none" xmlns="http://www.w3.org/2000/svg"><path fill-rule="evenodd" clip-rule="evenodd" d="M20.648 6.726c1.456.187 2.346.368 2.872.585 1.52.627 3.112 2.16 3.808 3.668.571 1.234.91 4.423.714 6.697-.104 1.195-.363 2.744-.55 3.28-.562 1.618-2.311 3.4-4 4.077-1.077.43-2.954.676-5.597.73l-1.966.039-1.173 1.225c-.646.674-1.267 1.273-1.38 1.332-.416.214-.978.022-1.235-.421-.049-.084-.092-.636-.113-1.427l-.035-1.29-.417-.157c-.848-.318-1.782-.973-2.578-1.806-1.245-1.303-1.677-2.35-1.977-4.795-.115-.938-.116-3.662-.001-4.584.305-2.455.733-3.492 1.978-4.795 1.147-1.201 2.313-1.858 3.755-2.119.61-.11 1.951-.278 2.9-.363.74-.067 4.177.019 4.995.124zM12.363 9.05c.478-.167 1.978-.407 3.12-.5 1.743-.142 3.872-.067 5.741.204 1.1.16 1.62.317 2.194.665.898.544 1.992 1.805 2.253 2.597.173.526.38 1.888.464 3.043.117 1.626-.109 4.188-.463 5.264-.332 1.008-1.592 2.306-2.773 2.857-.714.333-2.637.598-4.916.677l-1.287.044-1.768 1.813c-1.165 1.196-1.815 1.813-1.906 1.813-.136 0-.14-.042-.157-2.026l-.018-2.027-.393-.143c-.96-.352-2.056-1.24-2.677-2.168-.402-.6-.51-.909-.69-1.966a18.046 18.046 0 01.073-6.48c.196-1.008.47-1.5 1.294-2.33.743-.749 1.262-1.113 1.909-1.337z" fill="#fff"/><path fill-rule="evenodd" clip-rule="evenodd" d="M6.691 3.741c2.74-2.11 5.899-3.365 9.236-3.67 1.972-.181 3.96-.014 5.997.505 2.875.733 5.552 2.244 7.747 4.375 3.163 3.07 4.964 6.961 5.289 11.427.178 2.452-.24 5.17-1.152 7.479-.914 2.317-2.15 4.198-3.919 5.966-1.468 1.468-2.672 2.355-4.417 3.253a17.5 17.5 0 01-17.097-.64c-1.59-.975-3.57-2.734-4.64-4.122-2.227-2.892-3.44-6.071-3.697-9.697-.164-2.297.21-4.93 1.009-7.108.306-.836 1.145-2.555 1.58-3.24 1-1.573 2.731-3.501 4.064-4.528zm16.829 3.57c-.526-.217-1.416-.398-2.872-.585-.818-.105-4.254-.19-4.994-.124-.95.085-2.29.253-2.9.363-1.443.26-2.609.918-3.756 2.119-1.245 1.303-1.673 2.34-1.978 4.795-.115.922-.114 3.646.001 4.584.3 2.446.732 3.492 1.977 4.795.796.833 1.73 1.488 2.578 1.806l.417.157.035 1.29c.02.79.064 1.343.113 1.427.257.443.82.635 1.234.42.114-.058.736-.657 1.38-1.331l1.174-1.225 1.966-.04c2.643-.053 4.52-.298 5.597-.73 1.689-.675 3.438-2.458 4-4.076.187-.536.446-2.085.55-3.28.196-2.274-.143-5.463-.714-6.697-.696-1.508-2.288-3.041-3.808-3.668z" fill="#fff"/><path fill-rule="evenodd" clip-rule="evenodd" d="M15.483 8.55c-1.142.093-2.642.333-3.12.5-.647.224-1.166.588-1.909 1.336-.824.83-1.098 1.323-1.294 2.33a18.046 18.046 0 00-.072 6.48c.18 1.058.287 1.366.69 1.967.62.928 1.716 1.816 2.676 2.168l.393.143.018 2.027c.017 1.984.02 2.026.157 2.026.091 0 .74-.617 1.906-1.813l1.768-1.813 1.287-.044c2.28-.08 4.202-.344 4.916-.677 1.18-.551 2.44-1.85 2.773-2.857.354-1.076.58-3.638.463-5.264-.083-1.155-.29-2.517-.465-3.043-.26-.792-1.354-2.053-2.252-2.597-.575-.348-1.095-.506-2.194-.665-1.869-.27-3.998-.346-5.741-.204zm6.675 5.084c-.7-1.416-1.936-2.388-3.52-2.768-.69-.165-1.358-.177-1.509-.026-.27.27-.047.484.56.54 1.306.118 2.234.532 3.063 1.365.872.878 1.257 1.769 1.366 3.165.038.49.078.655.18.746.109.1.159.105.31.036l.181-.082-.045-.664c-.067-.992-.208-1.546-.586-2.312zm-6.324.089c-.064-.255-.96-1.566-1.358-1.987-.329-.348-.396-.388-.644-.388-.705 0-1.866 1.164-1.871 1.876-.002.229.629 1.743 1.042 2.502.726 1.335 1.717 2.605 2.685 3.443 1.102.954 3.187 2.174 4.403 2.577.417.138.449.139.775.03.666-.22 1.561-1.276 1.561-1.84 0-.156-.084-.282-.365-.547-.449-.423-1.754-1.326-2.031-1.405-.337-.097-.617.033-1.032.478-.36.386-.404.411-.695.411-.43 0-1.393-.49-1.946-.99-.486-.44-.976-1.142-1.258-1.802-.294-.688-.276-.784.24-1.28.454-.437.584-.72.494-1.078zm5.464 1.13c-.31-1.31-1.307-2.301-2.665-2.648-.49-.125-.938-.135-1.05-.022-.121.121-.1.383.038.454.066.035.345.1.62.147.952.158 1.818.754 2.208 1.517.165.325.334 1.03.335 1.403.002.43.268.635.51.394.137-.138.139-.671.004-1.244zm-1.28.34c-.052-.71-.354-1.18-.963-1.495-.284-.147-.947-.2-1.058-.085-.124.128-.105.388.034.46.066.034.25.078.408.098.158.02.384.106.503.19.237.17.47.612.473.896.001.1.058.25.127.335.1.123.165.145.317.107.19-.048.191-.05.158-.506z" fill="#fff"/><path d="M14.476 11.736c.398.421 1.294 1.732 1.358 1.987.09.358-.04.641-.493 1.077-.517.497-.535.592-.241 1.28.282.661.772 1.363 1.258 1.803.553.5 1.516.99 1.946.99.291 0 .334-.025.695-.411.415-.445.695-.575 1.032-.479.277.08 1.582.983 2.03 1.406.282.265.366.391.366.546 0 .565-.895 1.62-1.561 1.842-.326.108-.358.107-.775-.031-1.216-.403-3.301-1.623-4.403-2.577-.968-.838-1.959-2.108-2.685-3.443-.413-.759-1.044-2.273-1.042-2.502.005-.712 1.166-1.876 1.87-1.876.25 0 .316.04.645.388zm4.157.469c1.358.347 2.356 1.338 2.665 2.649.135.573.133 1.106-.005 1.244-.241.241-.508.036-.509-.394-.001-.374-.17-1.078-.335-1.403-.39-.763-1.256-1.359-2.208-1.517-.275-.046-.555-.112-.62-.147-.138-.072-.16-.333-.038-.454.113-.113.56-.103 1.05.022z" fill="#fff"/><path d="M18.638 10.867c1.584.38 2.82 1.351 3.52 2.767.378.766.519 1.32.586 2.312l.045.664-.18.082c-.153.07-.202.063-.312-.036-.101-.091-.14-.257-.179-.746-.109-1.396-.494-2.287-1.366-3.165-.829-.833-1.757-1.247-3.063-1.366-.607-.055-.83-.27-.56-.54.151-.15.819-.138 1.509.027zm.417 2.831c.609.315.911.785.962 1.495.033.455.032.458-.158.506-.152.038-.218.016-.317-.107a.636.636 0 01-.127-.335c-.002-.284-.236-.727-.473-.895a1.316 1.316 0 00-.503-.191 1.636 1.636 0 01-.408-.098c-.139-.072-.158-.332-.034-.46.111-.115.774-.062 1.058.085z" fill="#fff"/><path fill-rule="evenodd" clip-rule="evenodd" d="M15.927.07C12.59.376 9.431 1.631 6.691 3.741 5.358 4.768 3.627 6.696 2.627 8.27c-.435.684-1.274 2.403-1.58 3.24-.8 2.178-1.173 4.81-1.01 7.107.259 3.626 1.471 6.805 3.699 9.697 1.069 1.388 3.049 3.147 4.64 4.122a17.5 17.5 0 0017.096.64c1.745-.898 2.949-1.785 4.417-3.253 1.768-1.768 3.005-3.65 3.92-5.966.91-2.308 1.329-5.027 1.15-7.48-.324-4.465-2.125-8.356-5.288-11.426-2.195-2.13-4.872-3.642-7.747-4.375C19.887.057 17.899-.11 15.927.07zm4.721 6.656c1.456.187 2.346.368 2.872.585 1.52.627 3.112 2.16 3.808 3.668.571 1.234.91 4.423.714 6.697-.104 1.195-.363 2.744-.55 3.28-.562 1.618-2.311 3.4-4 4.077-1.077.43-2.954.676-5.597.73l-1.966.039-1.173 1.225c-.646.674-1.267 1.273-1.38 1.332-.416.214-.978.022-1.235-.421-.049-.084-.092-.636-.113-1.427l-.035-1.29-.417-.157c-.848-.318-1.782-.973-2.578-1.806-1.245-1.303-1.677-2.35-1.977-4.795-.115-.938-.116-3.662-.001-4.584.305-2.455.733-3.492 1.978-4.795 1.147-1.201 2.313-1.858 3.755-2.119.61-.11 1.951-.278 2.9-.363.74-.067 4.177.019 4.995.124zM15.483 8.55c-1.142.093-2.642.333-3.12.5-.647.224-1.166.588-1.909 1.336-.824.83-1.098 1.323-1.294 2.33a18.046 18.046 0 00-.072 6.48c.18 1.058.287 1.366.69 1.967.62.928 1.716 1.816 2.676 2.168l.393.143.018 2.027c.017 1.984.02 2.026.157 2.026.091 0 .74-.617 1.906-1.813l1.768-1.813 1.287-.044c2.28-.08 4.202-.344 4.916-.677 1.18-.551 2.44-1.85 2.773-2.857.354-1.076.58-3.638.463-5.264-.083-1.155-.29-2.517-.465-3.043-.26-.792-1.354-2.053-2.252-2.597-.575-.348-1.095-.506-2.194-.665-1.869-.27-3.998-.346-5.741-.204zm3.155 2.316c1.584.38 2.82 1.352 3.52 2.768.378.766.519 1.32.586 2.312l.045.664-.18.082c-.153.07-.202.063-.312-.036-.101-.091-.14-.257-.179-.746-.109-1.396-.494-2.287-1.366-3.165-.829-.833-1.757-1.247-3.063-1.366-.607-.055-.83-.27-.56-.54.151-.15.819-.138 1.509.027zm-4.162.87c.398.421 1.294 1.732 1.358 1.987.09.358-.04.641-.493 1.077-.517.497-.535.592-.241 1.28.282.661.772 1.363 1.258 1.803.553.5 1.516.99 1.946.99.291 0 .334-.025.695-.411.415-.445.695-.575 1.032-.479.277.08 1.582.983 2.03 1.406.282.265.366.391.366.546 0 .565-.895 1.62-1.561 1.842-.326.108-.358.107-.775-.031-1.216-.403-3.301-1.623-4.403-2.577-.968-.838-1.959-2.108-2.685-3.443-.413-.759-1.044-2.273-1.042-2.502.005-.712 1.166-1.876 1.87-1.876.25 0 .316.04.645.388zm4.157.469c1.358.347 2.356 1.338 2.665 2.649.135.573.133 1.106-.005 1.244-.241.241-.508.036-.509-.394-.001-.374-.17-1.078-.335-1.403-.39-.763-1.256-1.359-2.208-1.517-.275-.046-.555-.112-.62-.147-.138-.072-.16-.333-.038-.454.113-.113.56-.103 1.05.022zm.422 1.493c.609.315.911.785.962 1.495.033.455.032.458-.158.506-.152.038-.218.016-.317-.107a.636.636 0 01-.127-.335c-.002-.284-.236-.727-.473-.895a1.316 1.316 0 00-.503-.191 1.636 1.636 0 01-.408-.098c-.139-.072-.158-.332-.034-.46.111-.115.774-.062 1.058.085z" fill="#6F3FAA"/></svg>