<svg width="36" height="36" fill="none" xmlns="http://www.w3.org/2000/svg"><path fill-rule="evenodd" clip-rule="evenodd" d="M16.291.044c-5.633.585-10.57 3.65-13.568 8.425-4.252 6.77-3.458 15.71 1.917 21.6 2.975 3.259 6.696 5.207 11.157 5.843.834.119 3.602.117 4.471-.002 4.075-.56 7.725-2.368 10.5-5.2.911-.93 1.105-1.152 1.71-1.958 1.8-2.401 2.979-5.329 3.434-8.528.117-.83.117-3.61 0-4.439-.304-2.133-.856-3.95-1.74-5.732-.939-1.889-1.901-3.235-3.399-4.754C27.994 2.481 24.515.731 20.515.139 19.65.01 17.15-.047 16.29.043zm4.47 7.133c6.3 1.502 9.877 7.867 7.85 13.973-.523 1.576-1.349 2.894-2.602 4.151-1.585 1.592-3.3 2.52-5.53 2.998-.61.13-.965.159-2.041.16-1.785.005-2.894-.223-4.467-.916-.387-.17-.752-.309-.812-.308-.059 0-1.343.328-2.853.728-1.51.4-2.754.721-2.763.715-.01-.006.325-1.26.743-2.786l.76-2.775-.332-.672c-.748-1.518-1.076-2.96-1.074-4.723.005-3.015 1.07-5.575 3.195-7.679 1.67-1.653 3.779-2.687 6.23-3.055.116-.018.829-.022 1.584-.01 1.169.02 1.483.05 2.112.2zm-3.133 1.61c-3.448.247-6.603 2.716-7.707 6.031-.357 1.072-.456 1.705-.456 2.905 0 1.822.346 3.04 1.373 4.836l.167.292-.44 1.602c-.241.881-.426 1.615-.41 1.631.016.017.767-.165 1.668-.403l1.638-.433.851.426c1.402.7 2.621.995 4.131.995 3.784.003 7.238-2.495 8.436-6.1.362-1.09.452-1.651.452-2.846 0-.862-.033-1.248-.157-1.832-.763-3.602-3.598-6.361-7.19-7-.763-.136-1.473-.167-2.356-.104zm-2.132 4.097c.223.25 1.13 2.502 1.082 2.69-.021.085-.23.404-.462.708-.233.305-.424.605-.424.667 0 .133.562.968 1 1.483.472.558 1.363 1.238 2.122 1.62.95.477.997.471 1.54-.193.677-.827.74-.884.919-.831.216.063 2.23 1.003 2.437 1.138.157.101.166.14.129.579a3.288 3.288 0 01-.159.768c-.146.366-.678.856-1.215 1.12-.372.183-.462.197-1.246.196-.779-.001-.898-.02-1.514-.24-1.02-.361-1.653-.67-2.419-1.181-1.484-.989-3.232-2.966-3.953-4.47-.312-.651-.41-1.147-.373-1.89.033-.697.214-1.158.679-1.737.375-.466.627-.587 1.231-.589.415-.001.5.02.626.162z" fill="#67D449"/></svg>