<svg width="255" height="294" fill="none" xmlns="http://www.w3.org/2000/svg"><path d="M191.057 54.84c-.596.376-.345 2.04.314 2.165.565.126 1.507-1.38 1.287-2.071-.157-.44-1.004-.502-1.601-.094zm16.95 1.694c-.816.848-.848 1.036-.251 1.256.565.22 2.071-.91 2.071-1.538 0-.69-1.067-.534-1.82.282zm18.644 7.563c-.502.283-1.663.503-2.73.503-2.166 0-5.148 1.035-5.65 1.914-.189.345-.942.91-1.727 1.224-1.726.753-2.197 1.632-1.726 3.358.188.69.565 1.443.816 1.663.596.502.596.941.031.941-.784 0-.816.471-.156 1.758 1.286 2.448 3.138 3.703 3.609 2.479.283-.69 1.318-.565 1.726.188.189.408.252 1.224.157 2.009-.282 1.757.346 2.353 1.79 1.757.565-.22 1.318-.47 1.726-.565 1.13-.282 4.049 1.413 6.497 3.703 1.256 1.193 2.448 2.166 2.637 2.166.188 0 .722-.22 1.13-.502.502-.314 1.067-.44 1.695-.283 1.161.251 2.574-.44 3.452-1.694.785-1.099.817-2.072.126-3.672-.722-1.757-.659-5.68.188-8.285.346-1.13 1.287-3.107 2.072-4.394l1.412-2.353-3.86-.189c-2.794-.125-4.614-.407-6.749-1.035-3.923-1.13-5.336-1.287-6.466-.69zm-18.99 6.591c-.502.627.095 1.757.911 1.757.565 0 1.569-.753 1.569-1.224 0-.91-1.852-1.287-2.48-.533zm.095 5.241c-.534.157-1.193.533-1.507.878-.691.785-.565 2.354.22 2.48.69.125 3.766-1.381 4.52-2.197.533-.597.533-.628-.063-1.067-.659-.502-1.695-.534-3.17-.094zm-174.266 1.6c-.346.91-.817 2.51-1.037 3.515-.376 1.569-.596 1.945-1.6 2.573-1.57 1.004-2.135 1.914-2.135 3.452 0 1.35.534 2.071 1.79 2.448l.721.22-.753 1.004c-1.193 1.6-2.7 4.833-2.7 5.805 0 .471.157 1.036.377 1.256.283.282.22.376-.282.376-1.758 0-2.26 1.162-.91 2.04 1.16.753 2.165.314 4.237-1.883l1.852-2.008-1.036 2.26c-1.507 3.295-1.852 4.738-1.381 6.088.345 1.098.377 1.098.722.439.345-.596.44-.628.973-.188.345.251 1.224.47 1.946.47h1.287v1.632c0 .91.094 2.166.22 2.762.157.879 0 1.538-.91 3.452-.629 1.287-1.13 2.636-1.13 2.981 0 .722 2.353 3.201 2.573 2.762.094-.126.251-.659.377-1.13.157-.69.345-.847.753-.69 1.79.753 2.229.847 2.982.69.753-.22 1.036-.439 2.04-1.632.408-.471 3.516-.722 3.516-.282 0 .125-.471.753-1.068 1.412-1.35 1.475-1.946 3.327-1.569 4.739.22.784.628 1.192 1.664 1.694.816.377 1.506 1.005 1.663 1.413.44 1.192.345 3.514-.188 4.801-.283.659-.502 1.255-.502 1.287 0 .031.408.596.941 1.255 1.005 1.255.91 2.008-.345 2.668-.47.282-.785.219-1.412-.283-1.695-1.318-4.614-1.098-6.215.471-1.099 1.13-1.068 1.914.157 2.165.69.157.91.345.753.691-.094.282.063.753.345 1.067.471.533.471.69-.063 2.196-.847 2.354-2.605 4.174-4.77 4.99-.974.377-1.947.816-2.166 1.004-.44.346-.534 2.103-.22 3.296l.188.721 1.413-.847c1.255-.722 1.506-.785 2.574-.439.659.188 1.883.408 2.668.47 1.13.126 1.757.408 2.699 1.256 1.067.972 1.35 1.067 2.04.816 1.538-.597 2.73-1.318 4.018-2.448l1.287-1.161-.754 1.255c-2.134 3.64-2.919 4.205-6.183 4.582-1.883.219-2.73.47-3.704 1.161-2.04 1.443-7.753 8.567-7.282 9.069.126.095 1.256-.251 2.511-.784 3.076-1.318 3.61-1.412 5.21-.848 2.072.722 2.386.628 3.453-1.098 1.57-2.542 3.641-3.421 5.65-2.354.502.251 1.475.534 2.197.659 1.162.189 1.287.126 1.287-.439 0-.879.534-.941 8.318-1.318 7-.314 8.318-.533 10.42-1.757 1.225-.722 2.606-2.103 2.606-2.668 0-.125-.816-.314-1.789-.439-3.484-.377-4.52-1.35-2.637-2.417.503-.282.973-.816 1.036-1.224.063-.47.754-1.192 1.946-2.008 4.143-2.919 4.865-7.689 1.381-9.258-1.914-.879-4.833-.847-5.775.032-.534.502-.91.596-1.695.439-1.318-.283-1.475-.879-.502-2.134 2.071-2.699.973-5.147-2.982-6.684-1.977-.754-2.072-.942-1.161-1.915 1.13-1.224 2.134-2.95 2.134-3.734 0-1.099-1.099-2.166-3.421-3.39-1.224-.627-2.417-1.475-2.7-1.851-.47-.659-1.35-3.264-2.542-7.563-.596-2.197-2.543-4.457-4.99-5.869-1.32-.753-1.916-.91-3.862-.91-2.322 0-4.676-.659-4.331-1.224.125-.157.722-.47 1.38-.659 3.234-1.067 5.65-3.169 3.014-2.699-.596.126-1.318.314-1.57.408-1.004.377-.344-.439 1.162-1.475 2.291-1.537 3.516-3.107 5.305-6.716 1.852-3.734 2.574-6.37 1.852-6.778-1.601-1.004-8.538-.533-11.708.816-3.453 1.444-3.61 1.38-2.197-1.067.44-.753.879-1.914.941-2.542.063-.973.503-1.506 3.014-3.86 2.793-2.636 2.887-2.762 2.354-3.295-.471-.502-1.287-.565-5.838-.66l-5.305-.093-.628 1.663z" fill="#EFEFEF"/><path d="M223.199 82.801c-.848.345-1.884.91-2.292 1.318-.722.66-.784.879-.596 2.699.251 2.542-.188 4.174-1.601 5.712-2.417 2.698-5.399 2.196-7.156-1.162-.503-1.004-1.538-2.447-2.26-3.2-1.287-1.319-1.381-1.381-2.762-1.193-.754.125-2.103.565-2.92.973-1.663.847-2.071 1.506-2.416 3.954-.126.784-.722 2.667-1.319 4.236-.784 1.978-1.161 3.515-1.287 5.147l-.157 2.354 1.381-.816c4.583-2.699 5.619-2.824 14.439-1.977 5.618.533 5.618.533 6.874-.126.722-.376 1.318-.659 1.412-.659.063 0 .785.565 1.57 1.256.785.69 1.663 1.255 1.914 1.255.942 0 2.48 1.067 4.866 3.326 1.349 1.287 2.573 2.323 2.73 2.323.157 0 .691-.314 1.13-.659.565-.44 1.538-.754 2.794-.879 2.385-.251 3.296-.816 4.802-3.013 1.067-1.569 1.13-1.82.973-3.263-.219-1.852-1.224-3.955-2.103-4.425-.565-.314-.596-.565-.408-3.107l.189-2.793-1.35-.973c-1.852-1.35-3.421-1.789-4.74-1.318-.533.188-1.224.345-1.475.345-.251 0-1.601-1.13-3.013-2.51-2.323-2.26-4.206-3.484-5.273-3.453-.22.032-1.099.314-1.946.628zm-38.325.251c-2.166 1.35-4.018 4.425-4.049 6.716 0 4.048 3.044 2.197 3.578-2.197.188-1.443.439-2.197.847-2.479 1.319-.973 1.695-1.412 1.601-1.914-.157-.753-.879-.785-1.977-.126zM128.877 88.2a232.62 232.62 0 00-2.825 2.353c-1.161.941-2.103 1.412-3.295 1.663-.942.188-2.292.753-2.982 1.255-2.04 1.507-2.323 2.323-2.48 7.72-.219 6.716 0 8.003 1.507 9.509.941.942 1.255 1.507 1.412 2.73.126.848.283 1.789.377 2.103.22.847 1.412 1.475 3.107 1.663 1.225.126 1.758.032 2.606-.502.753-.471.973-.753.69-.91-1.412-.879-1.193-7.594.251-7.971.346-.063.659-.471.722-.879.063-.47.377-.784.879-.91.659-.157.816-.408.973-1.569.22-1.538 1.256-2.636 2.197-2.354.565.189 2.166-1.035 2.166-1.663 0-.157-.565-.376-1.224-.502-1.852-.282-2.543-1.35-2.543-3.829 0-1.13.283-3.044.628-4.268.722-2.604.785-3.734.251-4.268-.596-.596-1.036-.47-2.417.628z" fill="#EFEFEF"/><path d="M221.409 101.694c-.816.596-1.004.627-4.425.282-1.978-.188-5.744-.345-8.349-.345-5.368 0-6.278.219-7.848 1.914-.878.942-1.004 1.287-1.004 2.824 0 1.978.691 4.676 1.601 6.151.753 1.224 2.888 2.291 4.551 2.291 1.664.032 3.798 1.036 4.269 2.04.282.596.282 1.161 0 2.354-.44 1.946-.345 2.197 1.224 3.138.722.439 1.695 1.381 2.166 2.071 1.193 1.726 2.574 2.323 5.179 2.323 1.946 0 2.166-.063 2.982-.942.502-.533 1.506-1.161 2.26-1.443 2.448-.848 4.331-3.264 4.802-6.151.157-.942.408-1.256 1.35-1.726.722-.346 1.224-.848 1.318-1.35.126-.533.502-.879 1.193-1.13.722-.219.91-.408.659-.659-.188-.188-.377-1.035-.408-1.914-.126-2.416-2.009-5.084-5.022-7.092-.659-.44-1.57-.816-1.978-.816-.439 0-1.318-.534-2.103-1.256-.753-.69-1.412-1.255-1.475-1.224-.063 0-.502.283-.942.66zm-79.694 3.514c-1.852.691-4.865 2.291-5.336 2.856-.345.439-.345.753.126 2.04.314.847.471 1.663.376 1.82-.251.408 1.601 2.071 3.704 3.327 2.354 1.412 2.982 1.475 2.103.219-.879-1.224-.847-1.506.283-2.071l.941-.502-.69-.91c-.91-1.255-.534-2.574.847-2.825.879-.157.942-.282.911-1.475-.032-1.475-.817-2.918-1.633-2.887-.282 0-1.035.189-1.632.408zm-125.866 8.693c-2.825 1.538-2.92 1.601-3.892 3.515-.879 1.789-.69 1.977 1.6 1.632 1.758-.251 2.826-.753 3.767-1.789.722-.784 2.291-3.703 2.291-4.299 0-.691-1.443-.314-3.766.941zm181.674.973c-1.287 1.287-1.412 1.506-.879 1.663.848.283 2.166-.157 2.511-.784.377-.691.408-2.103.095-2.26-.157-.062-.911.565-1.727 1.381zm-38.858-.847c0 .596 1.13 1.726 1.726 1.726.628 0 .596-.377-.188-1.381-.691-.91-1.538-1.099-1.538-.345zm-136.099.784c-1.695.848-5.9 4.488-6.748 5.869l-.66 1.067.817 1.161c1.475 2.04 2.103 2.699 2.322 2.385.785-1.161 2.7-3.264 3.014-3.264.188 0 .627.502.941 1.099 1.695 3.138 5.148 3.044 6.78-.189.848-1.632.816-2.416-.157-2.793a1.555 1.555 0 01-.942-1.161c-.502-2.385-.878-3.264-1.757-3.985-1.162-.973-1.915-1.005-3.61-.189zm98.527 4.143c1.57 2.479 1.601 2.667.534 3.452-1.099.816-1.162 1.067-.314 1.286.345.095.628.408.628.691 0 1.067 3.923 5.554 6.277 7.186l.785.565-1.099-.219c-1.192-.252-2.699-1.005-4.363-2.197-1.224-.91-3.452-1.569-3.829-1.193-.125.126-.125.879.063 1.632.22.973.188 1.475-.063 1.789-.659.784-2.95.439-3.201-.471-.252-.941-4.269-1.381-5.336-.565-.503.346-.534.597-.157 2.668.596 3.577-.44 7.249-2.135 7.532-1.224.251-1.224.69 0 1.82 1.005.91 1.162 1.224.973 1.945-.376 1.475-1.726 2.919-3.484 3.704-.941.408-1.695.91-1.726 1.129 0 .22 0 1.036.031 1.789.032.753-.188 2.322-.502 3.515-.596 2.322-.691 1.82 1.287 7.155.471 1.287.471 1.444-.094 2.511l-.597 1.161.754 1.506c.408.816.847 2.197.941 3.044.126 1.036.44 1.789.942 2.323.439.439 2.762 1.537 5.367 2.541 2.543 1.005 4.646 1.821 4.677 1.821.032.031-.502 1.161-1.193 2.542-1.224 2.479-2.605 6.402-2.887 8.096-.189 1.224.314 1.35 3.201.722 3.139-.659 6.184-.69 6.435-.031.125.345.408.439.973.282.596-.157 1.538.157 3.515 1.13l2.668 1.349 3.045-.533c1.664-.314 4.52-.879 6.34-1.318 4.018-.91 5.274-.942 6.874-.126 1.507.753 1.538.596.628-2.071-.377-1.004-.565-2.165-.471-2.542.094-.377 1.507-1.852 3.139-3.264l2.982-2.573-3.861-3.986c-3.704-3.86-5.618-6.433-6.058-8.253-.157-.753-.031-1.036 1.036-2.04 1.444-1.349 7.847-4.739 10.766-5.68 2.574-.848 4.238-1.946 4.897-3.233.659-1.255.471-3.452-.659-8.096-1.005-4.143-2.135-6.873-3.327-8.034-1.068-1.036-1.099-1.381-.252-3.264.879-1.946.879-4.927-.031-7.343-.973-2.542-1.915-3.452-3.296-3.233-.816.126-1.349 0-2.197-.596-3.986-2.73-3.515-2.699-7.533-.628-1.381.691-3.045 1.758-3.704 2.354-1.067.973-1.287 1.036-2.605.847-2.856-.376-3.484-1.506-1.507-2.667 1.664-1.004 1.036-1.475-2.134-1.663-1.883-.126-2.637-.283-2.919-.659-.22-.314-.816-.534-1.318-.534-1.319 0-1.507-.345-.565-1.067.973-.784.816-1.538-.408-2.04-.754-.314-6.121-1.569-6.749-1.6-.125 0 .22.753.816 1.632z" fill="#EFEFEF"/><path d="M176.085 119.33c-3.17.91-5.21 1.789-7.219 3.201-.942.628-3.61 1.789-6.403 2.793-2.637.91-5.085 1.946-5.43 2.26-.503.471-.597.816-.44 1.883.094.753.283 1.945.377 2.699.157 1.035 0 1.82-.628 3.389-1.004 2.479-1.004 2.856-.126 3.609 1.79 1.569 3.798 7.908 4.332 13.62.283 3.169.345 3.326 1.318 4.174 2.323 1.977 3.014 2.385 4.709 2.887.973.282 2.165.816 2.636 1.161.816.659.816.69.157.91-.345.157-.659.408-.659.565 0 .565 2.197 2.542 2.825 2.542.659 0 .753-.251.628-1.538-.063-.659.031-.722.847-.533 2.825.659 10.327 4.989 11.896 6.872 1.162 1.413 1.57 1.569 2.448 1.005.973-.628 1.444-.408 3.265 1.537.753.785 1.538 1.444 1.758 1.444.219 0 1.286-.439 2.354-1.004 3.421-1.758 7.187-1.318 12.335 1.443 1.318.691 2.511 1.193 2.637 1.036.125-.126 0-.722-.283-1.318-1.161-2.417-.816-3.013 4.865-8.85l3.736-3.797-.66-1.601-1.255-3.201c-.377-.91-.785-3.075-.973-4.958-.471-4.613-.471-4.613-1.852-6.12-.691-.753-1.256-1.475-1.256-1.632 0-.188.722-1.004 1.601-1.851 2.323-2.291 2.794-3.358 2.449-5.555-.377-2.416-1.947-8.473-2.794-10.67-.502-1.381-.816-1.789-1.507-1.977-1.6-.408-13.716-.659-17.954-.376-7.187.502-8.129.47-9.636-.503-.941-.596-1.412-1.161-1.632-1.977-.69-2.51-1.977-2.824-6.466-1.569zm-27.151 1.601c0 1.663 1.538 2.667 2.198 1.443.251-.502.157-.722-.503-1.255-.973-.753-1.695-.847-1.695-.188zm-137.385 1.914l.157 1.475-2.04-.22c-1.884-.188-2.04-.157-2.198.44-.157.627-.188.627-.91-.157-1.193-1.287-3.013-.879-4.237.973-.816 1.286-.754 1.694.314 1.694 2.448 0 2.573 1.224.345 3.452-.848.879-1.57 1.726-1.57 1.883 0 .691 1.633 1.287 4.238 1.601 1.507.157 2.888.376 3.045.47.533.346.094.973-1.319 2.072-1.067.816-1.444 1.286-1.506 2.071-.095.847.031 1.067.722 1.318.439.188 1.255.314 1.82.314 1.287 0 .785.408-1.35 1.098-2.48.785-3.452 1.569-3.452 2.699 0 1.318-.722 2.542-2.26 3.891-.754.628-1.099 1.067-.816.973.314-.094 1.255-.251 2.134-.376 1.475-.189 1.57-.157 1.57.502 0 .408.25.753.627.847.44.126.628.44.628 1.067 0 .691.157.91.628.91.941 0 4.488-1.694 5.242-2.479.439-.471 1.098-.722 1.946-.784.941-.063 1.6-.377 2.51-1.224 1.476-1.318 2.04-1.632 3.485-1.946.596-.126 1.412-.534 1.82-.879.69-.659.722-.659 1.664-.094 1.255.722 1.57.439 2.51-2.322 1.79-5.304.754-13.024-2.228-16.476-.659-.784-1.318-1.726-1.444-2.103-.188-.659-.313-.596-1.883 1.162l-1.663 1.851-1.947-2.102c-1.914-2.103-3.232-3.045-4.237-3.045-.44 0-.502.252-.345 1.444zm90.617 10.796c-1.726.408-2.448 1.663-2.26 3.86.032.314.471.91.973 1.349 1.036.879 2.009 3.044 1.758 3.923-.345 1.098-2.009 2.165-3.327 2.165-1.727 0-2.48-1.223-2.48-4.142 0-3.076-.753-3.201-1.695-.282-.314.941-1.318 3.232-2.228 5.083l-1.727 3.39 1.82.345c3.548.69 3.58.722 1.507 1.663-1.004.471-1.946.848-2.103.848-.125 0-.313.125-.408.251-.062.125.848.188 2.04.125 2.072-.125 2.26-.094 4.3 1.161 1.162.691 2.575 1.444 3.171 1.632.973.345 1.13.314 1.695-.376.502-.628.565-1.036.408-2.48-.408-3.389-.471-3.138 1.13-3.766 2.009-.753 3.17-1.631 3.861-2.949l.596-1.13-1.004-1.036c-1.224-1.255-1.224-1.475-.189-2.448 1.224-1.098 2.637-3.42 2.637-4.299 0-1.004-1.507-2.448-3.013-2.856-1.413-.376-3.861-.408-5.462-.031z" fill="#EFEFEF"/><path d="M93.691 153.757c-4.582 1.694-4.614 1.694-6.277 1.255-.848-.22-1.978-.314-2.48-.189-1.758.377-3.233 2.448-2.73 3.798.156.439.47.47 1.757.314 1.538-.22 1.538-.22 2.166.972.753 1.475 1.318 2.009 3.39 3.045 1.915.972 2.73 1.977 2.448 3.106-.377 1.475.785 1.35 2.762-.282 1.067-.91 1.475-.942 1.475-.188 0 1.129 1.633 3.86 2.763 4.613 2.165 1.475 3.39.847 3.044-1.507-.251-1.631.565-3.828 1.287-3.546.691.251 1.475-1.192 1.224-2.291-.251-1.161-1.506-2.542-2.291-2.542-.848 0-1.224-.533-1.475-2.196-.283-1.695-.785-2.354-2.7-3.296-.784-.407-1.6-.972-1.82-1.223-.502-.628-.44-.628-2.543.157z" fill="#EFEFEF"/><path d="M78.123 157.93c-1.256.565-2.323 1.946-2.323 3.013 0 3.232-2.134 6.151-5.932 8.128-2.982 1.538-3.484 2.009-3.484 3.138 0 1.318-.534 1.601-3.108 1.601-3.107 0-5.524-.659-6.34-1.695-.69-.879-3.107-2.291-3.107-1.82 0 .157.22.973.47 1.82.252.848.69 2.668.942 4.049.282 1.38.565 2.824.66 3.2.125.66.03.722-1.194.722-1.412 0-4.614.44-5.806.816-.534.157-1.068-.157-2.417-1.443l-1.727-1.632-1.475.941c-.847.565-2.04 1.067-2.919 1.161-3.327.44-3.767.534-4.175 1.005-.313.408-.282.564.22.91 1.79 1.286 1.82 1.349 1.632 3.295l-.157 1.851h1.036c.565 0 2.229.503 3.673 1.13 1.412.628 3.61 1.381 4.802 1.663 2.04.503 2.197.597 2.197 1.413.032.565.44 1.224 1.35 2.039 1.067.973 1.318 1.413 1.318 2.291 0 1.789 2.103 4.425 4.551 5.681 2.103 1.067 2.103 1.035 1.57 7.312-.69 8.159-1.632 13.682-2.95 17.166-.503 1.286-.44 1.789.25 1.789.722 0 1.162.564 1.036 1.318-.063.282.251.753.69 1.035 1.602 1.067 3.83 1.475 9.135 1.726 6.026.314 8.13.785 10.044 2.291 1.099.879 1.475 1.004 3.17 1.004 2.637 0 3.39-.564 4.08-3.012.628-2.26 1.758-3.484 4.52-4.959 2.7-1.443 4.018-1.349 10.201.597 2.731.847 5.18 1.569 5.431 1.569.722 0 2.103-.848 4.363-2.731 1.224-1.004 2.668-2.071 3.201-2.353.91-.502 2.229-2.228 2.229-2.95 0-.188-.408-.283-.942-.188-1.193.156-2.228-.503-3.453-2.197-.753-1.004-.941-1.632-.941-2.887-.032-.879-.22-1.946-.471-2.385-.691-1.193-.565-1.507.785-2.354.69-.44 1.255-.973 1.255-1.161 0-.22-.376-1.35-.847-2.542-.691-1.758-.785-2.26-.471-2.762.533-.847.471-1.538-.314-2.699-.91-1.318-1.538-1.286-3.704.063-.941.565-1.758 1.004-1.82.973-.032-.063.219-.596.565-1.224.439-.722.596-1.381.471-1.883-.157-.628 0-.91.784-1.475.565-.408 1.224-1.224 1.475-1.852.252-.627 1.036-1.726 1.695-2.479.691-.722 1.319-1.726 1.413-2.228.157-.659.471-1.035 1.067-1.255 1.099-.377 1.569-1.255 2.856-5.241.534-1.726 1.319-3.86 1.727-4.802.408-.91.753-2.039.753-2.51 0-.722-.251-.879-1.977-1.475-1.068-.377-3.641-1.381-5.744-2.228-2.072-.879-4.614-1.789-5.65-2.009-1.287-.282-2.606-.91-4.3-2.071-3.14-2.134-4.08-2.605-5.21-2.605-1.1 0-1.35-.345-1.602-2.039-.157-1.13-.25-1.256-1.287-1.413-1.789-.314-3.295-1.412-4.017-3.012l-.66-1.413-1.569.22-1.6.22-.503-1.318c-.44-1.13-.627-1.287-1.475-1.287-.534.031-1.413.22-1.946.439zm78.658 1.099c-4.739 1.318-10.954 4.331-12.366 6.025-.628.722-.754 1.161-.628 1.789.345 1.475 2.385 4.111 5.901 7.657 3.421 3.484 5.775 5.272 6.874 5.272.314 0 1.412-.815 2.448-1.788l1.883-1.789 1.476.408c.816.251 2.197.627 3.044.879 2.417.69 7.69.941 8.13.376.219-.282.91-.439 1.789-.439 1.82 0 3.861-1.256 4.488-2.825.346-.784 1.036-1.443 2.386-2.291 2.448-1.506 2.448-2.196 0-3.86-2.197-1.475-7.282-4.048-8.004-4.048-.283 0-.942.345-1.475.785-.503.439-1.068.784-1.225.784-.565 0-3.421-2.918-3.609-3.671-.251-.942-1.318-1.507-3.798-2.009-1.57-.314-1.978-.533-2.04-1.036-.095-.564-.346-.659-1.664-.721-.847-.032-2.48.188-3.61.502z" fill="#EFEFEF"/><path d="M103.014 166.811c-.126.095-.22.816-.22 1.538 0 2.668 1.13 4.017 2.26 2.668.722-.942.722-2.134-.063-3.421-.565-.91-1.475-1.287-1.977-.785zm83.931 5.335c-.879.691-1.13.754-1.663.44-.377-.22-1.005-.314-1.57-.189-1.161.283-3.076 1.915-3.076 2.668 0 .847-2.197 2.667-3.955 3.264-2.385.847-3.044 1.224-3.546 2.102-.942 1.664.565 4.77 3.17 6.465 1.13.753 1.601.879 3.296.816 3.044-.094 4.362-.565 4.739-1.632.345-.973.659-1.13 2.951-1.443.784-.095 1.632-.408 1.82-.628.251-.314.973-.471 2.072-.471 1.412 0 1.789-.125 2.479-.847.44-.471.785-.973.785-1.067 0-1.067 6.937-1.224 8.067-.22.847.753 1.726.691 2.542-.157.628-.659 2.888-5.209 2.888-5.774 0-.377-4.614-2.228-6.56-2.636-2.574-.534-4.74-.189-7.125 1.13-2.543 1.412-3.296 1.349-3.83-.314-.376-1.256-1.381-2.354-2.071-2.354-.189 0-.816.377-1.413.847zm-27.966 6.842c-1.978 1.632-2.668 1.883-3.893 1.444-1.726-.659-2.448-.408-5.147 1.694-2.825 2.228-2.951 2.511-2.103 4.864.596 1.664.596 3.107.031 3.327-.251.094-.91-.063-1.444-.345-1.287-.659-3.358-.659-5.806 0-1.036.282-3.422.784-5.336 1.13-1.884.345-3.861.721-4.332.815-.534.095-1.381-.062-2.103-.376-1.726-.785-2.197-.502-2.197 1.255 0 1.13.188 1.632.816 2.26.816.816.816.816 3.578.219.565-.125.973.032 1.381.471.754.816 1.727.847 3.076.032.597-.314 2.103-.848 3.39-1.13 1.287-.283 2.637-.565 3.013-.659.471-.094.879.125 1.413.847 1.977 2.605 3.233 3.17 8.851 3.986 3.265.47 3.484.47 6.812-.189 8.192-1.632 10.326-2.95 10.389-6.527.063-2.511.314-3.013 1.977-3.797l1.539-.754-.189-1.914c-.251-2.542-1.036-5.115-1.82-5.9-.346-.345-1.036-.596-1.664-.596-.596 0-2.291-.345-3.766-.785-3.83-1.098-4.426-1.067-6.466.628z" fill="#EFEFEF"/><path d="M196.895 181.624c-.69.157-1.726.753-2.573 1.538-1.256 1.161-1.601 1.318-2.888 1.318-.942 0-1.695.188-2.04.502-.314.283-1.225.596-1.978.659-1.161.157-1.601.377-2.228 1.224-1.005 1.318-2.668 1.789-5.682 1.632-1.852-.094-2.448-.251-3.546-1.004-.722-.502-1.35-.848-1.382-.785-.062.063-.345.534-.659 1.004-.314.502-1.036 1.099-1.601 1.35-.753.314-1.035.596-.878.91.094.282-.063.753-.346 1.067-.722.816-1.443 3.264-1.443 4.958 0 1.35.69 3.044 1.789 4.394 1.538 1.82 7.752 5.115 9.793 5.178.471.031 1.287-.251 1.789-.628 1.193-.878 3.39-1.443 9.071-2.416 2.605-.44 5.242-.942 5.87-1.13 1.224-.314 2.448-1.569 2.448-2.479 0-2.448 6.78-11.925 8.537-11.925 1.099 0 .973-.754-.376-1.946-1.256-1.098-3.673-2.134-5.085-2.134-.314 0-.973-.283-1.444-.628-.973-.722-3.39-1.035-5.148-.659zm40.46 1.036c-.879.251-1.162.439-1.005.816.377.973 5.305 9.038 6.278 10.262 1.287 1.632 1.349 1.914 1.758 7.845.156 2.762.439 5.147.627 5.335.471.471 1.664-1.004 3.422-4.33.91-1.664 1.883-3.201 2.228-3.358.314-.189 1.161-.22 1.852-.126 1.977.314 3.296-1.161 1.915-2.134-.314-.22-.942-1.13-1.381-1.977-.44-.879-1.35-2.291-2.072-3.138-1.475-1.758-1.538-2.26-.628-3.421.816-1.035.628-1.632-.628-1.914-.533-.126-1.129-.471-1.286-.816-.252-.439-.66-.596-1.538-.596-.785 0-1.287-.157-1.382-.471-.251-.628-2.259-1.569-4.237-2.009-1.915-.408-2.291-.408-3.923.032z" fill="#EFEFEF"/><path d="M232.144 185.139c-1.601 1.035-5.085 2.416-7.564 2.981-1.507.377-1.789.345-2.48-.125-1.632-1.161-2.103-1.35-3.202-1.161-.659.094-2.385-.063-3.892-.314-1.506-.283-3.044-.408-3.421-.283-.345.094-1.381.753-2.291 1.444-.911.69-1.758 1.161-1.915 1.067-.408-.251-3.704 4.864-5.462 8.504-1.632 3.421-2.259 4.08-5.179 5.555-.91.471-1.663.879-1.663.942 0 .031.565.659 1.255 1.38.691.691 1.256 1.507 1.256 1.789 0 1.036.973 2.354 2.197 2.981 1.35.691 2.009 1.632 1.789 2.511-.376 1.444 2.26 3.107 4.834 3.138 2.417 0 4.3.942 2.95 1.444-.753.314-.565.847.785 2.165.848.816 1.256 1.507 1.256 2.071 0 .879.596 1.224 2.197 1.224.439 0 1.663.314 2.668.659 1.663.597 2.323.659 5.807.503 4.394-.22 6.183-.628 8.945-2.04 3.045-1.569 4.175-1.789 6.811-1.35 2.731.44 4.771 1.318 5.242 2.197.283.502.659.659 1.601.659 1.381 0 1.883-.565 1.883-2.071 0-2.071 2.072-8.285 2.762-8.285.157 0 .503.314.785.69.44.691.534.691 1.35.251.502-.282 1.224-.972 1.601-1.537.659-.942.69-1.162.282-1.726-.596-.942-2.417-1.036-3.766-.22-1.476.91-3.641.879-4.489-.063-.91-1.004-.973-1.255-1.507-6.716-.282-2.73-.627-5.523-.816-6.213-.69-2.511-5.147-10.388-6.905-12.177-1.067-1.067-1.946-1.035-3.704.126zm-112.871 4.707c-3.767.44-5.901.942-7.377 1.695-1.82.91-4.488 3.766-4.99 5.272-.251.753-.722 1.35-1.319 1.632-1.6.847-1.004 1.538 1.287 1.569 1.225 0 1.476.126 2.041 1.036 1.977 3.201 1.789 3.044 3.515 3.044 1.978-.031 3.107-.596 3.516-1.757.313-.879 1.977-2.166 2.793-2.166.22 0 .596.471.848 1.036.251.596.659 1.224.91 1.443.722.597 1.852-.219 3.044-2.165.534-.879 1.099-1.569 1.287-1.569.157 0 .722.282 1.224.659.534.377 1.162.565 1.507.439.659-.188 3.17-2.793 3.17-3.263 0-.157-.565-.22-1.255-.126-1.099.157-1.35.063-2.323-.91-1.036-1.036-1.758-2.793-1.758-4.268 0-.408-.157-1.004-.314-1.35-.376-.659-1.82-.721-5.806-.251z" fill="#EFEFEF"/><path d="M137.666 195.746c-.565.157-1.475.596-2.009 1.004-.69.503-1.349.691-2.322.628-1.193-.031-1.35.032-1.35.628 0 .345-.408 1.035-.942 1.475-.502.47-.941 1.067-.941 1.381 0 .282-.314.69-.66.91-.91.47-2.919-.126-3.578-1.067l-.502-.691-.91 1.004c-.848.942-1.57 2.731-1.57 3.923 0 1.004-.784.597-2.887-1.475-2.354-2.353-3.076-2.573-3.076-.973 0 1.507-.973 2.166-4.112 2.793-1.444.314-2.731.659-2.888.816-.157.157 0 .91.377 1.758.376.816.659 1.663.659 1.851 0 .189-.597.848-1.318 1.475l-1.287 1.13.816 1.506c1.004 1.758 1.036 2.009.314 2.511-.503.377-.471.502.282 1.632.785 1.161 2.448 2.291 3.453 2.291.596 0 1.193.659 1.193 1.318 0 .941.659.659 3.452-1.475 4.489-3.452 3.673-3.264 7-1.663 4.834 2.353 5.712 3.389 6.654 8.002.565 2.699.91 3.233 5.336 8.065 3.264 3.547 7.659 7.532 9.259 8.348.597.314 1.947.722 2.982.942 2.919.596 4.018 1.161 5.587 2.824 1.099 1.161 1.852 1.663 2.888 1.914 1.287.314 1.507.534 2.448 2.26.816 1.6 1.287 2.071 2.574 2.73 1.852.91 2.825 2.479 4.049 6.433 1.193 3.86 1.256 4.614.471 5.618-.785.973-1.852 3.672-1.852 4.582 0 .784 1.224 1.349 1.821.847.847-.69 2.322-3.107 2.856-4.707.471-1.35.785-1.758 1.946-2.417 1.193-.722 1.381-.973 1.475-2.008.094-1.099-.062-1.35-1.789-3.013-1.82-1.726-1.883-1.883-1.569-2.73.188-.471 1.098-1.915 2.04-3.17 1.381-1.851 1.883-2.259 2.574-2.259 1.255 0 3.892 1.632 5.304 3.295 1.193 1.412 1.225 1.443 1.79.816.502-.565.502-.659.062-1.569-.753-1.413-3.798-3.735-9.102-6.904-2.637-1.538-5.148-3.17-5.65-3.641-.816-.753-.848-.847-.377-1.506.722-1.004.911-1.475.691-1.726-.126-.094-1.664-.189-3.421-.22-2.951 0-3.328-.063-4.74-.91-3.139-1.852-4.834-4.205-6.811-9.572-1.162-3.044-2.637-4.738-5.242-5.962-1.57-.753-1.664-.753-2.072-.189-.753 1.036-1.349.377-1.538-1.788-.125-1.067-.282-2.919-.408-4.049-.157-1.632-.094-2.228.314-2.824.44-.722.44-.941-.031-2.573-.722-2.605-.471-2.982 3.013-4.425 1.569-.659 3.076-1.412 3.327-1.664.596-.596.628-3.514.031-4.927-.376-.91-.69-1.129-2.573-1.726-2.041-.596-2.606-.91-4.583-2.322-.942-.659-3.421-.941-4.928-.565z" fill="#EFEFEF"/><path d="M164.471 198.131c-1.977.659-5.618 1.35-9.981 1.883-2.856.377-3.39 1.883-1.758 5.116 1.476 2.949 3.014 3.891 4.206 2.573.722-.785 1.444-.785 3.014.031 1.6.785 1.977.659 1.977-.69.031-.91.188-1.13 1.224-1.601.628-.313 1.162-.753 1.193-.973 0-.188.031-.847.063-1.443.062-.942.314-1.287 1.883-2.479 3.798-2.887 2.982-3.986-1.821-2.417z" fill="#EFEFEF"/><path d="M166.92 201.238c-1.224.565-1.789 1.538-1.538 2.825.188 1.035-.032 1.569-.722 1.788-.22.094-.722.722-1.13 1.381-.377.691-1.036 1.444-1.444 1.663-1.004.534-2.511.22-3.202-.659-.533-.69-.533-.69-1.004-.094-.722.942-.565 1.569.785 3.201.722.848 1.349 1.883 1.444 2.322.345 1.57.91 2.637 2.071 3.986 1.036 1.193 1.13 1.444.816 2.103-.439.973.377 2.196 2.511 3.734 2.166 1.569 2.668 1.789 4.928 2.071 1.758.189 2.041.157 1.884-.219-.095-.251-1.287-2.04-2.637-3.954-2.731-3.829-4.74-7.469-4.74-8.599 0-.408.157-1.004.314-1.35.314-.533.691-.596 3.704-.596 4.802.031 12.838.785 14.501 1.412.785.283 1.633.597 1.915.659.314.126.659-.251 1.099-1.192.47-1.067.753-1.35 1.381-1.35 1.098 0 1.224 1.005.157 1.413-.691.251-.754.408-.471.91.157.345.471.721.628.816.376.251.408 2.259.031 2.479-.157.094-.44.627-.628 1.161-.314.91-.251 1.036 1.162 2.542l1.443 1.569-1.067.879-1.098.878.878.816c.471.44.848.91.848 1.067 0 .471-.753 1.005-1.444 1.005-.439 0-1.036.408-1.569 1.098-.565.753-1.068 1.098-1.476 1.036-.502-.063-.721.157-.91.972-.188.628-.533 1.099-.91 1.193-.345.094-.596.439-.596.847.031 1.507 2.416 5.524 3.295 5.524.22 0 1.13-.722 1.978-1.632 1.318-1.35 1.757-1.632 2.668-1.632 1.726 0 4.017 1.569 4.834 3.326l.721 1.475 2.323-1.098c1.852-.879 2.919-1.161 5.242-1.381 3.484-.314 3.892-.628 3.892-2.856 0-1.475.094-1.663 1.35-2.73 1.381-1.192 1.632-1.851.847-2.134-.69-.282-2.26-2.95-2.668-4.55-.314-1.224-.282-1.632.126-2.417.565-1.098.659-3.734.188-4.456-.282-.408-.439-.345-1.036.376-.408.503-.816.879-.91.879-.125 0-1.13-.627-2.228-1.412-1.382-.941-2.135-1.726-2.386-2.416-.785-2.103-1.318-2.95-2.448-3.704-.754-.502-1.381-1.349-1.884-2.51-.91-2.071-2.668-3.986-3.923-4.237-1.004-.251-5.65.691-6.435 1.287-.533.345-.533.502 0 2.511.503 1.82.503 2.165.126 2.541-.785.785-1.475-.282-1.475-2.228 0-1.6-.377-2.385-1.13-2.385-.189 0-.44.283-.534.628-.376 1.475-4.049.439-9.699-2.699-4.017-2.228-5.21-2.573-6.748-1.883z" fill="#EFEFEF"/><path d="M165.758 211.971c-.157.533.063 1.381.597 2.573 1.287 2.793 5.242 8.536 7.188 10.356.973.942 1.757 1.946 1.757 2.228 0 1.036 1.821 3.107 4.112 4.739 1.256.847 2.417 1.569 2.605 1.569.22 0 .314-.533.252-1.412-.189-2.259 1.82-5.209 3.201-4.676.408.157.471-.031.408-1.036-.063-1.129 0-1.192.879-1.286 1.695-.157 1.758-.251 1.067-1.444-.376-.69-.596-1.506-.565-2.291.063-.91-.094-1.412-.596-1.914-.377-.377-.691-.879-.691-1.13 0-.878.628-2.071 1.099-2.071.502 0 .973-1.349.628-1.883-.126-.188-.628-.251-1.224-.125-.722.125-1.57-.063-2.888-.597-1.758-.753-3.108-1.004-9.511-1.789-4.049-.47-4.394-.439-4.802.534-.22.502-.408.941-.44 1.004-.062.063-.533-.408-1.067-1.035-1.192-1.35-1.726-1.413-2.009-.314zm42.971 9.069c-.471.439-.785 1.13-.785 1.632 0 1.224 1.726 4.111 2.856 4.739 1.507.878 1.13 2.887-.565 2.887-.91 0-1.224.659-1.475 2.981-.251 2.385.126 3.64 1.538 5.21 1.099 1.224 1.224 1.569 1.099 3.169-.032.659.157.973.753 1.224.659.314 1.318.251 3.484-.282 3.453-.879 4.645-.879 7.219.094 1.507.565 2.762.816 4.269.816 2.856 0 4.363-.753 5.462-2.793 1.443-2.636 4.3-3.609 6.936-2.354 1.13.534 1.13.534 1.758-.22.942-1.161.188-3.358-1.067-3.044-1.036.283-.973-.439.157-2.071.628-.91 1.538-2.636 2.009-3.829.753-1.82 1.067-2.29 2.134-2.855 1.852-1.036 2.134-1.35 1.695-1.883-.188-.251-.659-.44-1.004-.44-.346 0-2.072-.659-3.798-1.506-2.857-1.318-3.39-1.475-5.43-1.475-2.072 0-2.449.126-5.305 1.569l-3.045 1.569-5.681-.031c-5.681-.063-10.107-.628-11.049-1.412-.251-.189-.439-.848-.439-1.413 0-1.318-.628-1.412-1.726-.282zM14.06 224.806c-.628.251-1.099.722-1.224 1.224-.314 1.255-1.287 1.883-3.202 2.071-1.57.126-1.82.283-2.323 1.13-.564.973-.564.973.534 3.044.596 1.13 1.224 2.824 1.35 3.735l.25 1.663h1.915c1.476 0 2.04.125 2.355.533.47.628 1.851 1.193 2.919 1.193.376 0 1.318-.283 2.071-.628 1.695-.753 4.426-.847 5.117-.125.282.251.502.816.502 1.224 0 .376.282 1.035.596 1.443.69.879.565 1.381-1.067 3.829-.973 1.443-1.161 2.102-1.381 4.268-.157 1.381-.47 2.761-.69 3.044-.252.282-.44 1.287-.44 2.197-.031 1.38-.188 1.883-1.036 2.918-1.193 1.506-1.224 1.883-.282 3.421 1.161 1.851 1.161 2.071.157 4.111l-.942 1.914.66 1.256c.847 1.663.847 1.882-.315 3.326-2.04 2.542-1.82 3.578 1.067 5.021 2.292 1.161 3.17 2.071 5.117 5.367 1.695 2.855 3.201 4.393 4.017 4.079.251-.094.754-.784 1.162-1.506.973-1.726 1.883-2.354 4.206-2.95 2.448-.596 9.416-1.412 12.304-1.412 1.224 0 2.636-.157 3.076-.314.47-.188 1.914-1.412 3.264-2.762 1.319-1.349 2.888-2.636 3.484-2.855.597-.22 1.413-.534 1.82-.691.44-.157.691-.533.691-.973 0-1.004 1.256-3.075 3.14-5.241 1.004-1.129 1.569-2.102 1.569-2.604 0-.44-.503-1.883-1.13-3.264-.722-1.538-1.036-2.573-.88-2.824 2.355-3.327 6.75-9.917 7.126-10.702.659-1.287 1.946-2.04 5.963-3.515 7.22-2.699 9.982-5.523 8.852-9.101-.251-.847-.973-.847-1.413-.031-.282.534-.659.628-2.197.628-1.035 0-2.417-.22-3.076-.471-.659-.282-1.663-.439-2.228-.408-.942.094-1.099-.031-1.381-.847-.157-.534-.471-1.036-.66-1.161-.188-.126-1.82-.251-3.64-.251-6.875 0-11.426-1.005-13.717-2.982-.722-.596-1.664-1.224-2.166-1.412-.879-.345-4.834-.659-15.349-1.255-3.672-.189-6.528-.534-8.16-.942-1.884-.47-3.485-.627-6.466-.596-3.39 0-4.206-.094-5.4-.628-1.663-.753-3.075-.816-4.52-.188zm108.979 8.567c-.345.063-1.004.408-1.475.753-.753.534-.879.816-.847 2.072.031 2.134.69 5.617 1.13 6.056.878.879 3.295-2.73 3.735-5.554.314-2.197-.816-3.672-2.543-3.327zm66.669 1.068c-1.35.439-1.695 1.694-1.068 3.828.408 1.413.471 2.574.346 5.618-.377 7.657-.251 8.693 1.192 9.697 1.35.91 2.072 1.851 2.072 2.667 0 .408.126.722.282.722.503 0 2.417-2.448 3.485-4.425.533-1.035 1.192-1.977 1.443-2.071.691-.251.534-.879-.878-3.64-1.319-2.448-1.35-2.636-1.287-5.21.094-3.891-.973-5.931-3.673-7.029-.753-.314-1.349-.377-1.914-.157z" fill="#EFEFEF"/><path d="M200.536 237.171c-.314.345-.91.659-1.287.659-2.071 0-4.049 4.77-2.887 6.998 1.506 2.95 4.677 3.421 8.004 1.193.816-.534 1.883-.973 2.385-.973 1.13 0 2.637-.753 3.076-1.538.534-1.004.345-2.95-.408-4.237-1.036-1.883-2.354-2.479-5.587-2.636-2.48-.125-2.793-.063-3.296.534zm-189.96 1.632c-1.35.408-1.507.91-.879 3.138 1.224 4.425-.094 12.898-2.825 18.264-.847 1.632-1.067 2.448-1.004 3.452.094 1.224.157 1.318 1.067 1.35 1.161.063 1.946.439 2.888 1.475.69.722.721.91.408 2.604-.534 3.264-.722 6.528-.377 7.407.251.69.628.878 2.134 1.224 2.731.564 3.453.502 4.457-.471.691-.659.942-1.224 1.068-2.542.094-.973.502-2.26.973-3.076.941-1.6 1.004-2.385.313-3.703-.47-.91-.439-1.035.471-2.793 1.099-2.071 1.099-2.071-.659-5.084-.659-1.129-1.193-2.196-1.193-2.353 0-.126.66-.471 1.507-.722l1.475-.471.032-1.789c0-1.035.22-2.008.47-2.322.252-.314.503-1.569.628-2.918.126-2.072.345-2.668 1.319-4.3 1.443-2.291 1.538-3.734.345-5.115-.66-.816-1.036-.973-2.134-.973-.91 0-1.601.22-2.104.659-.659.565-1.067.628-3.044.534-1.978-.095-2.354-.22-3.045-.973-.879-.942-.816-.91-2.291-.502zm224.77.125c-1.35.565-2.103 1.758-1.821 2.95.126.628 0 1.287-.439 2.071-.942 1.758-.283 4.268 1.381 5.367 1.067.69 2.04.376 3.923-1.287 1.884-1.663 2.982-2.008 7.628-2.291l3.515-.219-1.82-.848c-2.292-1.067-3.202-1.789-4.426-3.483-1.193-1.663-1.381-1.758-2.574-1.726-.534.031-1.318-.188-1.726-.471-.879-.628-2.292-.659-3.641-.063zm-18.77 4.425c-.848.251-2.543.596-3.735.753-1.664.189-2.292.408-2.7.942-.377.502-1.004.721-2.636.941-1.947.251-4.175 1.287-4.771 2.26-.095.125-.785.251-1.538.251-1.852 0-2.355.251-2.355 1.129 0 .408-.408 1.193-.91 1.789-.502.565-1.036 1.507-1.193 2.103-.188.69-.502 1.13-.91 1.224-.314.063-.69.251-.816.471-.471.721-.22 2.604.534 4.142.973 1.946 2.009 2.95 3.358 3.264l1.036.251-1.004.22c-1.915.439-2.072 1.474-.503 3.295.785.941.785.941 4.175.941 1.883 0 4.175.157 5.085.345 2.166.44 6.999 2.793 8.694 4.237.722.628 1.381 1.067 1.476.973.125-.094-.063-.879-.346-1.758-.627-1.883-1.914-3.106-5.712-5.397-1.413-.879-2.668-1.695-2.762-1.821-.063-.156.282-.345.816-.47.973-.189.973-.189.47-1.005-.313-.439-.502-1.098-.439-1.474.094-.597.283-.691 1.444-.628 1.098.063 1.35-.032 1.255-.439-.062-.283-.533-.628-1.098-.785-.973-.251-1.067-.408-1.507-2.26-.094-.533-.471-1.318-.816-1.788-.785-1.13-.753-1.883.22-3.798l.816-1.632.69 1.413c.565 1.192.785 1.381 1.79 1.475 1.946.157 2.73-.346 2.95-1.946.126-.785.502-1.663.816-1.946.722-.659 5.681-1.663 8.161-1.694.942 0 2.48.219 3.39.502.91.251 2.166.439 2.793.376 1.099-.094 1.162-.157 1.099-1.192-.063-1.381-.753-1.883-2.605-1.883-1.821 0-4.583-.502-7.188-1.287-2.291-.69-3.359-.722-5.524-.094zm-95.859 4.143c-2.449 1.192-2.606 1.631-1.884 4.299.722 2.73.754 4.77.063 7.187l-.534 1.851 1.225 1.067c1.475 1.287 1.851 1.287 2.887.094.44-.533 1.005-.91 1.287-.878 1.224.219 2.794-5.241 2.448-8.474-.345-3.044-1.883-6.025-3.107-6.025-.377 0-1.444.408-2.385.879z" fill="#EFEFEF"/><path d="M203.393 268.961c-.346.188-1.381.91-2.292 1.601l-1.632 1.255 1.915 2.008c1.569 1.632 1.883 2.134 1.695 2.699-.502 1.601-.502 2.291-.032 2.699.346.283.628.314 1.13.032.973-.534 1.444-.22 2.355 1.569.439.847.91 1.569 1.067 1.569.157 0 .439-.408.659-.942.439-1.035 1.067-1.224 1.506-.408.189.314.503.44.817.314.816-.314.627-2.416-.471-4.739-.534-1.161-.91-2.196-.785-2.29.094-.095.879.125 1.758.502 1.852.784 3.233.784 3.39-.063.094-.408-.094-.534-.816-.534-.565 0-1.162-.313-1.664-.816-1.35-1.443-5.524-4.079-7.345-4.613-.345-.125-.91-.031-1.255.157zm-55.4 1.663c-.283.345-.722.471-1.287.345-.502-.094-1.067.032-1.413.314-.565.408-.502.502.942 1.883 1.664 1.506 6.78 4.205 8.035 4.205 1.005 0 2.637 1.005 3.296 2.009.283.408.91.91 1.413 1.13.784.313 1.067.313 1.726-.126 1.067-.69 1.255-1.757.659-3.578-.565-1.631-.377-2.667.816-4.613.722-1.192.722-2.04.032-2.04-.314 0-2.355.22-4.52.44-2.574.282-4.457.314-5.493.157-3.767-.691-3.735-.691-4.206-.126zm68.112 20.493c0 .408 1.506.879 3.609 1.192.848.126 1.947.503 2.386.816 2.009 1.507 7.031.879 5.21-.627-.941-.785-11.205-2.04-11.205-1.381z" fill="#EFEFEF"/></svg>