<svg width="306" height="247" fill="none" xmlns="http://www.w3.org/2000/svg"><path fill-rule="evenodd" clip-rule="evenodd" d="M183.811 1.058c-2.101.943-4.952 1.436-8.456 1.463-6.133.048-9.486.918-11.552 3-.958.965-2.701 1.566-4.993 1.72-3.866.26-4.835 1.887-1.937 3.253 1.781.838 1.851 1.055.864 2.657-.6.974-.872.906-1.925-.48-.676-.886-1.94-2.004-2.812-2.484-1.383-.76-1.585-.68-1.585.623 0 2.296-1.343 2.677-3.473.985-2.464-1.956-3.708-1.219-2.981 1.764.399 1.635 1.154 2.434 2.796 2.963 1.238.398 2.25 1.164 2.25 1.702 0 1.167-.116 1.18-2.35.268-1.375-.561-1.994-.404-2.972.756-2.232 2.65-2.781 1.78-2.767-4.396.007-3.224-.31-6.112-.703-6.417-1.377-1.069-3.842-.565-5.266 1.077-1.825 2.102-1.813 3.488.046 5.614.815.932 1.255 2.09.976 2.575-.599 1.042-4.614.394-7.505-1.212-2.531-1.406-4.754-1.357-5.28.115-.318.89-1.054 1.08-2.971.764-1.536-.252-3.216-.014-4.231.601-1.242.753-2.181.82-3.578.253-1.57-.636-2.502-.412-5.454 1.314-2.955 1.726-3.816 1.934-5.064 1.216-1.588-.913-3.187-.42-2.501.77.222.388-.712.705-2.077.705-1.76 0-2.7.44-3.235 1.513-.415.832-1.298 1.523-1.962 1.537-.664.012-1.797.502-2.517 1.089-1.04.846-1.612.88-2.785.165-1.621-.99-3.944-3.605-3.981-4.483-.013-.307 2.28-.35 5.098-.093 4.16.377 5.293.242 6.036-.719.782-1.013.6-1.36-1.266-2.395-3.755-2.086-15.703-5.226-19.751-5.191-6.08.051-10.272 1.644-13.97 5.308-1.807 1.789-3.798 3.256-4.426 3.26-.628.005-1.896 1.208-2.817 2.674-1.197 1.904-2.582 2.958-4.845 3.687-2.21.711-3.108 1.381-2.97 2.215.11.657-.286 2.443-.88 3.97-1.33 3.419-1.374 3.087.48 3.607.927.261 2.047-.037 2.766-.736 1.705-1.657 3.543-.755 5.182 2.541.775 1.558 1.893 2.932 2.485 3.054 1.595.327 4.206-2.634 4.206-4.771 0-1.481.36-1.862 1.76-1.862 2.13 0 2.162-.294.341-3.042l-1.42-2.142 3.533-3.198c1.943-1.76 3.532-3.657 3.532-4.216 0-.68.929-1.016 2.817-1.016 1.55 0 2.817.241 2.817.537 0 .295-1.412 1.93-3.14 3.632-2.57 2.535-3.06 3.431-2.702 4.947.84 3.555 3.47 3.868 9.364 1.116 3.26-1.523 4.09-1.658 5.243-.85.754.527 1.484 1.326 1.623 1.775.259.832-5.17 2.32-9.683 2.653-2.114.157-2.465.452-2.465 2.074 0 1.377-.383 1.898-1.41 1.918-2.033.041-3.168.986-3.168 2.638 0 1.551-2.417 3.362-3.515 2.633-.368-.245-1.662.107-2.876.782-2.223 1.235-8.043 1.005-10.467-.413-.674-.394-1.458.014-2.34 1.219-.824 1.124-2.06 1.811-3.257 1.811-1.235 0-2.675.836-3.999 2.322-2.729 3.062-7.968 6.755-9.583 6.755-1.535 0-1.713 1.176-.269 1.771 1.513.623 3.189 4.566 2.734 6.433-.34 1.398-.907 1.63-4.012 1.639-6.37.018-6.584.2-6.954 5.917-.359 5.558.438 8.02 2.635 8.144.774.043 2.583.334 4.02.645 2.55.553 2.656.483 4.708-3.105 1.155-2.018 3.271-5.312 4.702-7.32 2.162-3.032 2.885-3.573 4.276-3.198.956.258 2.617-.073 3.876-.772 2.13-1.184 2.25-1.164 3.69.626.82 1.016 3.19 3.119 5.27 4.673 2.83 2.115 3.98 2.607 4.577 1.959.596-.646.047-1.62-2.173-3.85-3.768-3.785-4.88-5.859-3.453-6.447 1.429-.588 3.772.894 4.315 2.73.248.839 1.56 2.023 2.915 2.631 1.811.813 2.76 1.913 3.577 4.147 1.281 3.503 2.582 3.832 4.546 1.15 1.741-2.376 5.582-2.733 5.03-.466-.353 1.45 1.505 6.117 2.79 7.007.388.27 2.857.348 5.486.175 5.566-.368 6.198.192 4.657 4.129-.596 1.524-1.273 3.709-1.503 4.856-.377 1.886-.703 2.082-3.396 2.048-1.638-.02-3.612.029-4.387.11-.774.082-3.569-.747-6.21-1.844l-4.802-1.993-2.38 2.79-2.38 2.791-2.813-2.426c-1.547-1.335-3.552-2.427-4.457-2.427-1.955 0-4.855-2.015-4.711-3.272.056-.488.065-1.912.018-3.163l-.083-2.276-6.162.007c-5.03.005-6.615.3-8.627 1.61-3.226 2.1-6.236 2.832-7.398 1.797-.695-.62-1.34-.379-2.598.973-.92.989-4.515 3.45-7.987 5.468-3.473 2.019-6.565 4.115-6.873 4.66-.308.543-1.866 2.609-3.462 4.588-4.405 5.463-5.684 9.15-5.134 14.802.336 3.456.164 5.417-.653 7.493C.498 125.289 0 127.378 0 128.386c0 2.749 5.128 11.678 9.323 16.232 3.696 4.014 3.715 4.023 7.227 3.573 1.937-.248 4.558-.466 5.824-.484 1.267-.017 3.169-.516 4.226-1.109 2.866-1.606 5.337-1.33 7.204.805 1.008 1.152 2.432 1.89 3.644 1.89 2.212 0 2.267.212 2.013 7.694-.135 3.951.136 4.785 3.431 10.589 4.751 8.367 5.438 12.226 3.161 17.754-2.172 5.277-2.142 8.41.117 11.985 1.32 2.09 1.972 4.444 2.435 8.813.977 9.197 5.705 17.288 10.102 17.288.49 0 1.78.997 2.868 2.216 1.658 1.858 2.255 2.102 3.699 1.512.947-.387 2.823-.703 4.17-.703 4.57 0 7.762-2.5 10.395-8.145 1.305-2.8 2.617-5.929 2.914-6.953.296-1.024 1.242-2.456 2.102-3.182 1.193-1.008 1.67-2.436 2.021-6.047.426-4.367.705-4.976 3.663-7.977 4.377-4.44 5.244-8.658 3.592-17.464-.643-3.428-1.17-7.209-1.17-8.403 0-2.211 3.515-7.935 9.575-15.596 3.3-4.173 8.032-14.06 8.032-16.785 0-.947-.143-1.723-.317-1.723-.309 0-7.07 1.875-8.486 2.353-1.111.375-3.96-1.592-3.49-2.408.234-.405-.826-2.345-2.355-4.311-1.528-1.966-3.016-4.766-3.305-6.222-.29-1.456-1.027-3.669-1.638-4.917-.612-1.248-1.03-2.859-.93-3.579.1-.721-.778-2.81-1.951-4.641-1.784-2.785-4.994-10.176-4.994-11.5 0-.206.554-.07 1.233.305.677.374 1.629.528 2.113.342.484-.187.88.04.88.503s1.267 3.245 2.817 6.181c1.55 2.937 2.817 5.785 2.817 6.329 0 .545.884 2.812 1.964 5.038 1.08 2.226 2.556 6.175 3.28 8.775 1.22 4.378 1.468 4.727 3.346 4.727 2.429 0 6.251-2.001 10.545-5.522 1.733-1.42 3.495-2.715 3.919-2.879 1.067-.413 7.229-9.059 7.229-10.145 0-1.045-1.956-2.964-3.697-3.628-.679-.258-1.233-1.16-1.233-2.006 0-1.953-.237-1.928-2.426.251-1.235 1.228-2.349 1.672-3.568 1.422-1.947-.4-2.398-.92-2.815-3.243-.153-.853-1.086-2.583-2.073-3.842-2.043-2.608-2.285-4.289-.712-4.938 1.17-.481 3.847 1.688 3.847 3.119 0 1.248 4.831 3.562 6.353 3.043.796-.271 1.628.105 2.215 1 1.302 1.988 3.776 2.722 8.44 2.507 3.557-.165 4.24.061 6.431 2.128 1.349 1.271 2.965 2.312 3.592 2.312 1.282 0 1.526 1.167.401 1.913-1.203.799.598 2.523 2.173 2.08.761-.213 1.383-.689 1.383-1.056 0-.367.269-.668.597-.668.328 0 .642 2.527.696 5.617.082 4.601.538 6.689 2.518 11.534 1.33 3.255 2.637 6.857 2.903 8.004 1.029 4.435 3.16 3.187 4.461-2.611.438-1.952.797-4.714.797-6.138 0-2.81.792-4.111 6.221-10.224 1.967-2.215 3.771-4.682 4.008-5.483.236-.801 1.026-1.456 1.756-1.456.729 0 1.625-.574 1.99-1.275.556-1.066 1.056-.602 3.058 2.836 2.893 4.97 4.095 7.851 4.095 9.82 0 1.762.903 1.908 2.112.343.483-.624 1.089-1.135 1.348-1.135.625 0 2.878 9.161 2.878 11.703 0 2.564 1.16 1.825 1.763-1.122.591-2.891 1.28-2.849 3.261.197 2.016 3.101 2.657 3.572 4.836 3.557 2.459-.017 3.857-1.378 4.895-4.763.774-2.522.723-3.327-.38-6.051-.7-1.728-1.844-3.751-2.542-4.496-.698-.744-1.269-1.996-1.269-2.781 0-1.972 4.738-6.007 6.981-5.945 4.366.12 10.72-4.237 14.278-9.791 1.871-2.92 2.105-3.844 1.836-7.243-.169-2.144-.885-5.194-1.591-6.78-1.262-2.836-1.258-2.917.221-5.065 1.405-2.043 1.043-3.73-.572-2.658-.683.454-3.554-2.141-3.538-3.197.011-.734 4.656-3.971 5.698-3.971.465 0 .658.77.465 1.858-.283 1.592-.15 1.754.928 1.135 2.843-1.635 5.944.091 3.973 2.21-.584.626-.466.848.454.848 1.03 0 1.206.554 1.021 3.214-.194 2.793-.027 3.245 1.273 3.444 1.821.279 3.786-1.672 3.786-3.76 0-.841-.69-2.57-1.532-3.84l-1.533-2.311 1.709-1.59c.939-.874 2.106-2.546 2.593-3.715.551-1.324 1.347-2.052 2.113-1.933 2.445.382 4.501-1.056 8.04-5.622 3.693-4.767 5.866-9.132 5.158-10.362-.219-.381-.005-1.368.475-2.193.728-1.253.658-1.756-.428-3.044-.849-1.008-1.825-1.401-2.816-1.134-.975.262-1.958-.115-2.75-1.055-1.193-1.416-1.09-1.585 3.2-5.237 2.438-2.075 5.226-4.042 6.194-4.37 2.362-.8 11.278-.955 11.711-.202.19.329 1.255.598 2.369.598 1.427 0 2.16-.46 2.486-1.565.931-3.151 8.083-6.117 8.083-3.351 0 1.862 1.965 1.288 3.571-1.044.998-1.45 1.936-2.057 2.804-1.812 1.244.349 1.235.47-.192 2.54-.823 1.197-2.472 2.532-3.664 2.969-1.191.436-3.587 2.112-5.323 3.724l-3.156 2.93.216 5.173c.119 2.845.353 5.32.52 5.498.167.18 1.435-1.094 2.818-2.83 1.384-1.736 2.887-3.17 3.341-3.188.455-.018 1.484-1.143 2.288-2.501 1.124-1.9 1.303-2.852.772-4.13-.53-1.275-.395-2.01.583-3.171 1.017-1.206 2.17-1.511 5.712-1.511 3.53 0 4.95-.374 6.943-1.826 1.378-1.005 3.739-2.05 5.248-2.324 1.508-.274 3.32-.952 4.027-1.506 1.189-.934 1.09-1.108-1.344-2.355-2.621-1.342-3.566-3.334-1.581-3.334.575 0 2.456.405 4.18.9 2.412.692 3.553.694 4.96.006 1.778-.87 1.795-.944.642-2.834-1.473-2.415-5.029-4.4-10.72-5.984-4.531-1.26-5.743-1.099-5.743.77 0 1.569-1.852 1.343-4.185-.51-1.829-1.452-2.397-1.528-6.134-.82-3.497.664-4.371.591-5.796-.48-4.053-3.044-4.658-3.232-9.255-2.87-3.291.258-5.648-.024-8.309-.991-3.872-1.408-10.007-1.175-16.675.633-1.549.42-3.536.571-4.415.335-.88-.235-2.525-.016-3.657.487-1.712.762-2.329.713-3.665-.293-.883-.664-2.66-1.207-3.948-1.207-1.289 0-3.199-.472-4.246-1.048-4.906-2.703-8.613-3.543-11.643-2.638-3.937 1.176-13.884 1.445-12.137.328 3.037-1.941 4.625-3.664 4.625-5.017 0-1.557-.085-1.588-4.93-1.795-1.743-.075-4.12-.347-5.282-.605-1.354-.301-3.252.04-5.282.951zM118.667 4.07c-1.549.799-3.76 2.28-4.915 3.292-1.948 1.708-2.029 1.976-1.142 3.757.846 1.698 3.98 3.381 4.752 2.552.158-.17-.052-1.27-.468-2.445-.579-1.637-.542-2.269.156-2.706.502-.314 2.656-1.774 4.786-3.245 3.69-2.547 3.773-2.673 1.761-2.665-1.162.004-3.38.661-4.93 1.46zm102.235-.246c-.967 1.038-.387 1.591 2.523 2.403 4.62 1.291 6.564 1.33 7.882.154 1.103-.983.939-1.167-1.838-2.059-3.283-1.054-7.804-1.317-8.567-.498zm-165.72 6.944c1.744 1.955 2.264 2.122 5.59 1.798 3.404-.331 6.132-1.805 6.132-3.313 0-.352-3.07-.64-6.822-.64H53.26l1.922 2.155zM27.528 39.164c-.537.696-.676 2.096-.377 3.805.452 2.588.385 2.705-1.543 2.715-3.408.018-5.265.874-5.923 2.734-.728 2.056-.207 4.063 1.053 4.063.477 0 1.877-1.191 3.11-2.647 2.4-2.831 5.588-3.735 4.677-1.324-1.029 2.717-1.728 5.773-1.402 6.123.185.2 1.146-.033 2.134-.517.988-.483 2.694-.879 3.79-.879 2.58 0 4.34-2.041 2.843-3.296-1.808-1.517-5.251-6.88-5.044-7.857.111-.518-.399-1.634-1.133-2.48-1.151-1.327-1.452-1.388-2.185-.44zM246.49 55.061c0 .171-1.097 3.064-2.438 6.429l-2.438 6.118h1.638c1.367 0 2.026-.953 3.968-5.737 1.935-4.767 2.16-5.852 1.328-6.417-1.061-.721-2.058-.911-2.058-.393zm-133.809 7.28c.905.65.829.965-.528 2.19-1.931 1.74-2.009 3.186-.264 4.882 1.225 1.191 2.149 5.242 2.434 10.675.104 1.98-.143 2.3-1.932 2.52-2.392.292-5.344-1.186-5.344-2.675 0-.569.469-1.802 1.043-2.743.964-1.58.892-1.907-.949-4.322-4.078-5.352-4.064-6.112.177-9.627 2.207-1.83 3.719-2.083 5.363-.9zm-28.784 1.98c.53.687.807 1.453.614 1.701-.194.249 1.074.466 2.817.485 3.684.04 9.359 3.55 9.003 5.572-.306 1.733-4.9 1.943-8.673.396-2.887-1.184-3.249-1.188-4.87-.048-2.2 1.55-4.896 1.58-6.3.07-.972-1.043-.937-1.444.346-3.97 1.574-3.097 3.825-5.457 5.203-5.457.491 0 1.328.562 1.86 1.25zm155.943 6.243c-.586 1.017-.677 6.256-.141 8.06.318 1.068.004 2.027-.989 3.026-.8.805-2.163 2.202-3.029 3.105-.866.903-2.638 1.754-3.939 1.89-2.992.316-4.135 2.082-3.03 4.686.733 1.728 1.028 1.84 3.131 1.194 1.277-.393 3.136-1.36 4.132-2.148 1.147-.91 2.487-1.295 3.665-1.053 1.561.32 1.931.056 2.334-1.67.264-1.126.277-4.386.03-7.243-.347-4.002-.247-5.115.434-4.847.486.191 1.345.032 1.911-.354.877-.6.827-.943-.344-2.332-1.824-2.165-3.663-3.186-4.165-2.314zm-27.273 51.857c-.628 1.48-.541 2.579.423 5.286.668 1.881 1.482 3.595 1.807 3.812.726.481 1.748-9.012 1.092-10.151-.817-1.419-2.5-.885-3.322 1.053zm4.692 17.933c.139 2.768.58 4.219 1.501 4.942 1.12.881 1.429.84 2.192-.281 1.266-1.859 1.11-3.221-.696-6.069-2.313-3.65-3.229-3.22-2.997 1.408zm-35.942-.691c-.578 1.6-.235 3.382 1.692 8.781 1.634 4.584 3.301 6.9 4.966 6.9 1.855 0 1.075-6.737-1.029-8.887-.916-.936-1.995-1.702-2.4-1.702-.404 0-.746-.595-.76-1.323-.014-.729-.466-2.175-1.005-3.215-.867-1.672-1.037-1.736-1.464-.554zm-27.67 1.711c-1.092 2.572-.423 3.99 1.677 3.559 2.12-.435 2.396-3.521.417-4.658-1.062-.611-1.457-.403-2.094 1.099zm50.059 6.858c-2.033 2.244-3.697 4.775-3.697 5.625 0 1.233-.39 1.501-1.937 1.327-1.669-.188-1.925.044-1.849 1.673.07 1.51 1.387 6.083 2.148 7.458.083.151 1.793.288 3.8.307 3.373.031 3.713-.133 4.509-2.164.473-1.209 1.351-2.636 1.953-3.172 1.091-.973 1.214-3.693.3-6.64-.35-1.127.003-2.056 1.267-3.331l1.752-1.768-1.782-1.774c-.98-.976-2.004-1.74-2.275-1.698-.27.042-2.156 1.912-4.189 4.157zm-27.642-.976c0 .543.742 2.067 1.649 3.387.906 1.32 2.539 4.704 3.627 7.522 2.098 5.43 6.986 11.747 8.799 11.371.587-.121 1.117-1.066 1.177-2.101.061-1.034.325-2.602.587-3.484.383-1.291.125-1.699-1.323-2.089-.989-.267-2.173-1.247-2.63-2.178-.458-.931-2.368-3.507-4.246-5.725-1.878-2.216-3.414-4.46-3.414-4.983 0-.524-.807-1.347-1.794-1.83-2.259-1.106-2.432-1.098-2.432.11zm42.574 8.147c-.271.471-1.697.715-3.243.557-2.482-.254-2.796-.09-3.117 1.631a93.184 93.184 0 01-.916 4.204c-.309 1.259-.322 2.961-.03 3.782l1.07 3.003c.434 1.217.618.92.94-1.512l.4-3.026 1.573 2.647c1.408 2.372 1.574 2.465 1.584.896.006-.963-.334-2.446-.758-3.295-.556-1.118-.556-1.773 0-2.371 1.161-1.246.929-2.037-.597-2.037-2.567 0-2.135-1.322.584-1.789 2.816-.483 4.928-2.246 3.683-3.072-.379-.252-.908-.08-1.173.382zm11.184 4.914c-.553 1.547 3.193 5.435 7.209 7.481 1.442.735 2.578 1.966 2.837 3.076.238 1.018 1.527 2.882 2.865 4.144 2.39 2.253 3.757 2.401 3.757.406 0-.803 1.407-1.927 2.411-1.927.1 0 1.475 1.361 3.055 3.025 2.84 2.989 5.108 3.916 5.087 2.08-.016-1.403-.848-2.498-2.692-3.541-1.235-.699-1.546-1.363-1.244-2.655.505-2.16-.329-2.965-8.238-7.958l-6.198-3.914-1.398 1.909c-1.651 2.254-3.46 1.861-3.46-.751 0-.995-.291-1.81-.646-1.81-.356 0-1.145-.205-1.755-.456-.688-.284-1.29.053-1.59.891zm-37.501 12.004c1.117 1.145 12.16 4.2 15.697 4.343 1.259.051 2.868-.255 3.575-.68 1.059-.637.682-.867-2.157-1.311-1.892-.295-4.175-1.045-5.073-1.665-2.234-1.541-13.504-2.184-12.042-.687zm53.23 9.244c-.258.276-.47 2.024-.47 3.883 0 1.858-.356 4.655-.791 6.216l-.792 2.837-2.553-1.757c-4.88-3.358-5.187-3.848-3.975-6.364.588-1.221 1.069-2.406 1.069-2.635 0-.229-1.715-.416-3.811-.416-3.391 0-4.012.257-5.634 2.327-1.003 1.28-1.823 2.642-1.823 3.026 0 1.435-2.665.652-3.041-.894-.505-2.077-1.894-1.534-3.65 1.427-.774 1.306-1.784 2.389-2.243 2.404-.459.017-1.211 1.136-1.67 2.488-.673 1.976-1.712 2.884-5.296 4.63-5.641 2.746-6.591 3.909-7.61 9.319-.758 4.02-.687 4.778.826 8.931 1.226 3.365 1.56 5.455 1.291 8.085-.36 3.525-.347 3.553 2.204 4.458 2.343.83 2.654.768 3.569-.712.704-1.139 1.729-1.621 3.449-1.621 1.345 0 3.287-.5 4.315-1.112 1.029-.612 3.203-1.472 4.833-1.911 1.63-.44 3.142-1.11 3.361-1.49.689-1.199 4.842.761 6.892 3.252 1.69 2.056 2.129 2.245 3.326 1.442 1.277-.857 1.348-.758.957 1.338-.364 1.952-.213 2.263 1.093 2.263.92 0 1.751.666 2.12 1.702 1.186 3.33 2.958 4.309 7.126 3.934 7.717-.693 8.431-1.002 8.431-3.663 0-1.316.413-3.064.919-3.884.505-.821 1.824-3.831 2.932-6.69 1.539-3.971 1.838-5.501 1.268-6.482-.411-.706-.59-2.166-.398-3.244.269-1.511-.071-2.256-1.482-3.249-1.007-.708-1.831-1.909-1.831-2.669 0-.759-1.532-3.528-3.403-6.153-4.189-5.871-5.048-7.561-5.048-9.924 0-1.017-.451-2.25-1.001-2.741-.551-.49-1.212-2.234-1.471-3.874-.451-2.873-.993-3.547-1.988-2.477zm-138.814 4.582c-.562 2.75-1.418 3.667-4.096 4.389-1.824.491-1.932.762-1.932 4.825 0 2.368-.373 4.705-.829 5.195-.811.872-1.28 7.988-.575 8.745.197.212 1.264.497 2.37.632 2.425.297 2.538.098 5.254-9.208 2.797-9.586 3.158-13.151 1.548-15.286l-1.255-1.664-.485 2.372zm180.986 36.121c-.691 2.361-1.038 5.053-.788 6.121l.445 1.907 3.442-2.873c3.253-2.715 3.371-2.935 2.145-4.007-.714-.624-1.4-1.982-1.527-3.018-.443-3.633-2.392-2.652-3.717 1.87zm-10.95 10.653c-4.159 3.03-6.691 5.374-6.691 6.193 0 2.182 1.832 1.402 8.216-3.502 4.848-3.725 6.007-4.974 5.717-6.164-.2-.822-.406-1.473-.458-1.448-.051.026-3.104 2.24-6.784 4.921zm-23.91 8.97c-.948.565-2.149.852-2.667.638-.6-.247-.391.615.574 2.371 1.786 3.254 3.15 2.698 3.603-1.468.157-1.441.269-2.608.25-2.594-.019.015-.81.489-1.76 1.053z" fill="#EFEFEF"/></svg>