<svg width="13" height="17" viewBox="0 0 13 17" fill="none" xmlns="http://www.w3.org/2000/svg">
<path d="M6.07143 0C2.72364 0 0 2.68109 0 5.97656C0 7.09 0.31332 8.1766 0.906296 9.1193L5.72583 16.7646C5.81815 16.911 5.9808 17 6.15572 17H6.15973C6.33618 16.9986 6.49916 16.9069 6.58979 16.7579L11.2865 9.03855C11.8467 8.11577 12.1429 7.05696 12.1429 5.97656C12.1429 2.68109 9.41921 0 6.07143 0ZM10.4181 8.52716L6.14806 15.5452L1.76635 8.5945C1.27277 7.80984 1.00516 6.90459 1.00516 5.97656C1.00516 3.23033 3.28161 0.989453 6.07143 0.989453C8.86125 0.989453 11.1343 3.23033 11.1343 5.97656C11.1343 6.87706 10.8844 7.75917 10.4181 8.52716Z" fill="#00B9BF"/>
<path d="M6.07143 2.98828C4.39754 2.98828 3.03571 4.32882 3.03571 5.97656C3.03571 7.61378 4.37538 8.96484 6.07143 8.96484C7.7884 8.96484 9.10714 7.59578 9.10714 5.97656C9.10714 4.32882 7.74532 2.98828 6.07143 2.98828ZM6.07143 7.97539C4.94966 7.97539 4.04087 7.07781 4.04087 5.97656C4.04087 4.87807 4.9555 3.97773 6.07143 3.97773C7.18736 3.97773 8.09861 4.87807 8.09861 5.97656C8.09861 7.06174 7.21097 7.97539 6.07143 7.97539Z" fill="#00B9BF"/>
<path fill-rule="evenodd" clip-rule="evenodd" d="M10.4181 8.52716L6.14806 15.5452L1.76635 8.5945C1.27277 7.80984 1.00516 6.90459 1.00516 5.97656C1.00516 3.23033 3.28161 0.989453 6.07143 0.989453C8.86125 0.989453 11.1343 3.23033 11.1343 5.97656C11.1343 6.87706 10.8844 7.75917 10.4181 8.52716ZM3.03571 5.97656C3.03571 4.32882 4.39754 2.98828 6.07143 2.98828C7.74532 2.98828 9.10714 4.32882 9.10714 5.97656C9.10714 7.59578 7.7884 8.96484 6.07143 8.96484C4.37538 8.96484 3.03571 7.61378 3.03571 5.97656Z" fill="#00B9BF"/>
</svg>
