<svg width="35" height="35" viewBox="0 0 35 35" fill="none" xmlns="http://www.w3.org/2000/svg">
<path fill-rule="evenodd" clip-rule="evenodd" d="M16.1236 0.0355036C12.5987 0.329553 9.31926 1.62846 6.52029 3.83931C5.87179 4.35146 4.34125 5.88169 3.82899 6.53005C1.80276 9.09425 0.556592 12.0183 0.118305 15.237C-0.0394349 16.3954 -0.0394349 18.5981 0.118305 19.7565C0.648578 23.6506 2.31269 27.0323 5.05775 29.7943C6.10015 30.8431 6.63398 31.2887 7.75316 32.0444C12.8922 35.5146 19.5837 35.9621 25.2001 33.2115C30.2801 30.7236 33.8543 25.9067 34.7776 20.3044C35.469 16.1089 34.5284 11.5783 32.2327 8.04666C31.2719 6.56861 29.6977 4.81445 28.4481 3.82952C25.9386 1.85143 22.8758 0.543139 19.818 0.143153C18.8058 0.0107827 17.0378 -0.040782 16.1236 0.0355036ZM26.1619 11.7023C26.2158 11.2597 26.104 10.9111 25.8356 10.6854C25.5464 10.4421 25.1438 10.4599 24.4071 10.7485C23.7719 10.9972 16.0185 13.9891 11.0509 15.9022C9.33686 16.5622 7.81474 17.163 7.66843 17.2372C7.05309 17.5489 6.90344 17.9538 7.28494 18.2748C7.40652 18.377 7.82248 18.5518 8.29521 18.6992C8.7372 18.8371 9.77432 19.1608 10.5999 19.4187C11.4256 19.6766 12.1345 19.8682 12.1753 19.8446C12.2161 19.8209 14.5223 18.3721 17.3 16.6249C20.4042 14.6725 22.4234 13.4433 22.5397 13.4353C22.6734 13.4261 22.729 13.4547 22.729 13.5324C22.729 13.593 20.9105 15.2839 18.6879 17.2899C16.4653 19.2959 14.6236 20.9582 14.5953 20.9839C14.5669 21.0096 14.4832 21.9072 14.4091 22.9786C14.3351 24.0501 14.2619 25.0577 14.2464 25.2178C14.2187 25.5059 14.2207 25.5088 14.4395 25.5088C14.7158 25.5088 15.0343 25.2775 15.7084 24.5868C15.991 24.2973 16.4603 23.8445 16.7514 23.5804L17.2806 23.1004L19.4881 24.7284C21.6143 26.2965 21.9798 26.5268 22.3523 26.5327C22.5966 26.5367 22.943 26.3049 23.0755 26.0488C23.1863 25.8346 26.0775 12.3956 26.1619 11.7023Z" fill="white"/>
<path d="M25.8356 10.6854C26.104 10.9111 26.2158 11.2597 26.1619 11.7023C26.0775 12.3956 23.1863 25.8346 23.0755 26.0488C22.943 26.3049 22.5966 26.5367 22.3523 26.5327C21.9798 26.5268 21.6143 26.2965 19.4881 24.7284L17.2806 23.1004L16.7514 23.5804C16.4603 23.8445 15.991 24.2973 15.7084 24.5868C15.0343 25.2775 14.7158 25.5088 14.4395 25.5088C14.2207 25.5088 14.2187 25.5059 14.2464 25.2178C14.2619 25.0577 14.3351 24.0501 14.4091 22.9786C14.4832 21.9072 14.5669 21.0096 14.5953 20.9839C14.6236 20.9582 16.4653 19.2959 18.6879 17.2899C20.9105 15.2839 22.729 13.593 22.729 13.5324C22.729 13.4547 22.6734 13.4261 22.5397 13.4353C22.4234 13.4433 20.4042 14.6725 17.3 16.6249C14.5223 18.3721 12.2161 19.8209 12.1753 19.8446C12.1345 19.8682 11.4256 19.6766 10.5999 19.4187C9.77432 19.1608 8.7372 18.8371 8.29521 18.6992C7.82248 18.5518 7.40652 18.377 7.28494 18.2748C6.90344 17.9538 7.05309 17.5489 7.66843 17.2372C7.81474 17.163 9.33686 16.5622 11.0509 15.9022C16.0185 13.9891 23.7719 10.9972 24.4071 10.7485C25.1438 10.4599 25.5464 10.4421 25.8356 10.6854Z" fill="white"/>
<path fill-rule="evenodd" clip-rule="evenodd" d="M16.1236 0.0355036C12.5987 0.329553 9.31926 1.62846 6.52029 3.83931C5.87179 4.35146 4.34125 5.88169 3.82899 6.53005C1.80276 9.09425 0.556592 12.0183 0.118305 15.237C-0.0394349 16.3954 -0.0394349 18.5981 0.118305 19.7565C0.648578 23.6506 2.31269 27.0323 5.05775 29.7943C6.10015 30.8431 6.63398 31.2887 7.75316 32.0444C12.8922 35.5146 19.5837 35.9621 25.2001 33.2115C30.2801 30.7236 33.8543 25.9067 34.7776 20.3044C35.469 16.1089 34.5284 11.5783 32.2327 8.04666C31.2719 6.56861 29.6977 4.81445 28.4481 3.82952C25.9386 1.85143 22.8758 0.543139 19.818 0.143153C18.8058 0.0107827 17.0378 -0.040782 16.1236 0.0355036ZM25.8356 10.6854C26.104 10.9111 26.2158 11.2597 26.1619 11.7023C26.0775 12.3956 23.1863 25.8346 23.0755 26.0488C22.943 26.3049 22.5966 26.5367 22.3523 26.5327C21.9798 26.5268 21.6143 26.2965 19.4881 24.7284L17.2806 23.1004L16.7514 23.5804C16.4603 23.8445 15.991 24.2973 15.7084 24.5868C15.0343 25.2775 14.7158 25.5088 14.4395 25.5088C14.2207 25.5088 14.2187 25.5059 14.2464 25.2178C14.2619 25.0577 14.3351 24.0501 14.4091 22.9786C14.4832 21.9072 14.5669 21.0096 14.5953 20.9839C14.6236 20.9582 16.4653 19.2959 18.6879 17.2899C20.9105 15.2839 22.729 13.593 22.729 13.5324C22.729 13.4547 22.6734 13.4261 22.5397 13.4353C22.4234 13.4433 20.4042 14.6725 17.3 16.6249C14.5223 18.3721 12.2161 19.8209 12.1753 19.8446C12.1345 19.8682 11.4256 19.6766 10.5999 19.4187C9.77432 19.1608 8.7372 18.8371 8.29521 18.6992C7.82248 18.5518 7.40652 18.377 7.28494 18.2748C6.90344 17.9538 7.05309 17.5489 7.66843 17.2372C7.81474 17.163 9.33686 16.5622 11.0509 15.9022C16.0185 13.9891 23.7719 10.9972 24.4071 10.7485C25.1438 10.4599 25.5464 10.4421 25.8356 10.6854Z" fill="#039BE5"/>
</svg>
