<svg width="35" height="35" viewBox="0 0 35 35" fill="none" xmlns="http://www.w3.org/2000/svg">
<path fill-rule="evenodd" clip-rule="evenodd" d="M20.6482 6.72578C22.1044 6.91295 22.9938 7.09423 23.52 7.31123C25.04 7.93794 26.6317 9.47074 27.3285 10.9786C27.899 12.2133 28.2385 15.4021 28.0416 17.6761C27.9381 18.8712 27.6788 20.4204 27.4928 20.9556C26.9302 22.574 25.1809 24.3566 23.4916 25.0329C22.415 25.4639 20.5377 25.7086 17.8954 25.7621L15.9294 25.8019L14.7558 27.0268C14.1105 27.7005 13.4891 28.2999 13.3752 28.3589C12.9604 28.5733 12.398 28.3813 12.141 27.9377C12.0924 27.8538 12.0486 27.3017 12.0276 26.5108L11.9934 25.2209L11.576 25.0641C10.7278 24.7456 9.79381 24.0913 8.99784 23.2584C7.75278 21.9553 7.32134 20.9087 7.02099 18.4628C6.90584 17.5251 6.90516 14.8011 7.01982 13.8793C7.32538 11.4235 7.75305 10.3866 8.99784 9.08375C10.1453 7.88294 11.3107 7.22558 12.7534 6.96542C13.3636 6.85534 14.7044 6.6874 15.6537 6.60202C16.3938 6.53546 19.83 6.62056 20.6482 6.72578ZM12.3627 9.04961C12.8406 8.88344 14.3408 8.64318 15.4826 8.54994C17.2263 8.40751 19.3555 8.48317 21.2245 8.75394C22.3231 8.91306 22.8432 9.07082 23.4182 9.4193C24.3164 9.9635 25.4095 11.2237 25.6705 12.0159C25.8441 12.5422 26.0518 13.9038 26.1349 15.059C26.2518 16.685 26.0264 19.2467 25.6718 20.3227C25.3395 21.3308 24.0797 22.6289 22.8986 23.18C22.1854 23.5129 20.2625 23.7776 17.9825 23.8568L16.6965 23.9014L14.9285 25.7143C13.7627 26.9097 13.1132 27.5272 13.0217 27.5272C12.8857 27.5272 12.8824 27.4855 12.8647 25.5008L12.8466 23.4743L12.4541 23.3306C11.4942 22.9787 10.3982 22.0914 9.77746 21.1634C9.37537 20.5622 9.2674 20.2545 9.08753 19.1969C8.72061 17.039 8.74524 14.8473 9.16026 12.7163C9.35648 11.7089 9.62995 11.2163 10.454 10.3863C11.1966 9.63828 11.7164 9.27427 12.3627 9.04961Z" fill="white"/>
<path fill-rule="evenodd" clip-rule="evenodd" d="M6.69101 3.74124C9.43126 1.63119 12.59 0.375718 15.9274 0.0701284C17.899 -0.110407 19.8874 0.0574041 21.9237 0.57616C24.799 1.30863 27.4759 2.82016 29.6709 4.95073C32.834 8.02099 34.6351 11.9124 34.9597 16.3775C35.138 18.8304 34.7195 21.5488 33.8084 23.8565C32.8935 26.1735 31.6573 28.0555 29.8891 29.8235C28.4208 31.2915 27.2174 32.1776 25.4716 33.0761C20.0749 35.8536 13.5517 35.6095 8.3751 32.4362C6.78481 31.4613 4.80488 29.7021 3.73572 28.3139C1.50812 25.4216 0.295903 22.2428 0.0377647 18.6167C-0.125821 16.3195 0.247806 13.6879 1.04672 11.5094C1.35343 10.6729 2.19182 8.95418 2.62702 8.26966C3.62728 6.69629 5.35817 4.76753 6.69101 3.74124ZM23.52 7.31123C22.9938 7.09423 22.1044 6.91295 20.6482 6.72578C19.83 6.62056 16.3938 6.53546 15.6537 6.60202C14.7044 6.6874 13.3636 6.85534 12.7534 6.96542C11.3107 7.22558 10.1453 7.88294 8.99784 9.08375C7.75305 10.3866 7.32538 11.4235 7.01982 13.8793C6.90516 14.8011 6.90584 17.5251 7.02099 18.4628C7.32134 20.9087 7.75278 21.9553 8.99784 23.2584C9.79381 24.0913 10.7278 24.7456 11.576 25.0641L11.9934 25.2209L12.0276 26.5108C12.0486 27.3017 12.0924 27.8538 12.141 27.9377C12.398 28.3813 12.9604 28.5733 13.3752 28.3589C13.4891 28.2999 14.1105 27.7005 14.7558 27.0268L15.9294 25.8019L17.8954 25.7621C20.5377 25.7086 22.415 25.4639 23.4916 25.0329C25.1809 24.3566 26.9302 22.574 27.4928 20.9556C27.6788 20.4204 27.9381 18.8712 28.0416 17.6761C28.2385 15.4021 27.899 12.2133 27.3285 10.9786C26.6317 9.47074 25.04 7.93794 23.52 7.31123Z" fill="white"/>
<path fill-rule="evenodd" clip-rule="evenodd" d="M15.4826 8.54994C14.3408 8.64318 12.8406 8.88344 12.3627 9.04961C11.7164 9.27427 11.1966 9.63828 10.454 10.3863C9.62995 11.2163 9.35648 11.7089 9.16026 12.7163C8.74524 14.8473 8.72061 17.039 9.08753 19.1969C9.2674 20.2545 9.37537 20.5622 9.77746 21.1634C10.3982 22.0914 11.4942 22.9787 12.4541 23.3306L12.8466 23.4743L12.8647 25.5008C12.8824 27.4855 12.8857 27.5272 13.0217 27.5272C13.1132 27.5272 13.7627 26.9097 14.9285 25.7143L16.6965 23.9014L17.9825 23.8568C20.2625 23.7776 22.1854 23.5129 22.8986 23.18C24.0797 22.6289 25.3395 21.3308 25.6718 20.3227C26.0264 19.2467 26.2518 16.685 26.1349 15.059C26.0518 13.9038 25.8441 12.5422 25.6705 12.0159C25.4095 11.2237 24.3164 9.9635 23.4182 9.4193C22.8432 9.07082 22.3231 8.91306 21.2245 8.75394C19.3555 8.48317 17.2263 8.40751 15.4826 8.54994ZM22.1582 13.6345C21.4585 12.2184 20.222 11.2463 18.6376 10.8665C17.9478 10.7011 17.2802 10.6893 17.1295 10.8399C16.8599 11.1096 17.0822 11.324 17.6885 11.3791C18.9947 11.4977 19.9233 11.9117 20.7516 12.7448C21.6243 13.6225 22.0092 14.514 22.1181 15.9102C22.1563 16.3993 22.196 16.5648 22.2974 16.6564C22.4068 16.7554 22.4565 16.7611 22.6084 16.6919L22.7893 16.6095L22.7442 15.9456C22.6768 14.954 22.5363 14.3997 22.1582 13.6345ZM15.8344 13.7226C15.7704 13.4676 14.8745 12.1574 14.4763 11.7363C14.1473 11.3884 14.0804 11.3481 13.8316 11.3481C13.127 11.3481 11.966 12.512 11.9607 13.2238C11.9589 13.4528 12.5896 14.9672 13.0029 15.7264C13.7293 17.0607 14.72 18.3308 15.6879 19.1689C16.7896 20.1229 18.875 21.3434 20.0908 21.7458C20.5076 21.8836 20.5397 21.8849 20.8658 21.7766C21.5319 21.5554 22.427 20.4997 22.427 19.9352C22.427 19.7801 22.3426 19.6539 22.0617 19.3889C21.6135 18.9662 20.3085 18.0631 20.0306 17.9835C19.6941 17.8869 19.4137 18.0169 18.9985 18.4619C18.6382 18.8479 18.5954 18.8733 18.3042 18.8733C17.8736 18.8733 16.9109 18.3835 16.358 17.8833C15.8717 17.4432 15.3816 16.7411 15.0998 16.0809C14.8061 15.3925 14.8241 15.2969 15.3409 14.8001C15.7944 14.3642 15.9243 14.0806 15.8344 13.7226ZM21.2977 14.8535C20.9887 13.5431 19.9911 12.5515 18.6326 12.2048C18.1429 12.0797 17.6955 12.0703 17.5831 12.1827C17.4618 12.304 17.4834 12.5655 17.6207 12.6375C17.6865 12.672 17.9658 12.7378 18.2412 12.7837C19.1931 12.9423 20.0591 13.5376 20.4487 14.3011C20.6144 14.6259 20.7827 15.3302 20.784 15.7044C20.7855 16.1338 21.0516 16.3394 21.2933 16.0978C21.431 15.96 21.4329 15.4267 21.2977 14.8535ZM20.0173 15.1927C19.9664 14.4831 19.6638 14.0129 19.0553 13.6983C18.7706 13.5512 18.1083 13.4977 17.997 13.6129C17.8729 13.7414 17.8922 14.0014 18.0312 14.0728C18.097 14.1067 18.2803 14.1508 18.4385 14.1709C18.5967 14.1911 18.8235 14.2768 18.9425 14.3616C19.1792 14.5302 19.4127 14.9726 19.4151 15.257C19.416 15.3564 19.473 15.5072 19.5419 15.5923C19.6411 15.7148 19.7071 15.737 19.8588 15.699C20.0491 15.6512 20.05 15.6481 20.0173 15.1927Z" fill="white"/>
<path d="M14.4763 11.7363C14.8745 12.1574 15.7704 13.4676 15.8344 13.7226C15.9243 14.0806 15.7944 14.3642 15.3409 14.8001C14.8241 15.2969 14.8061 15.3925 15.0998 16.0809C15.3816 16.7411 15.8717 17.4432 16.358 17.8833C16.9109 18.3835 17.8736 18.8733 18.3042 18.8733C18.5954 18.8733 18.6382 18.8479 18.9985 18.4619C19.4137 18.0169 19.6941 17.8869 20.0306 17.9835C20.3085 18.0631 21.6135 18.9662 22.0617 19.3889C22.3426 19.6539 22.427 19.7801 22.427 19.9352C22.427 20.4997 21.5319 21.5554 20.8658 21.7766C20.5397 21.8849 20.5076 21.8836 20.0908 21.7458C18.875 21.3434 16.7896 20.1229 15.6879 19.1689C14.72 18.3308 13.7293 17.0607 13.0029 15.7264C12.5896 14.9672 11.9589 13.4528 11.9607 13.2238C11.966 12.512 13.127 11.3481 13.8316 11.3481C14.0804 11.3481 14.1473 11.3884 14.4763 11.7363Z" fill="white"/>
<path d="M18.6326 12.2048C19.9911 12.5515 20.9887 13.5431 21.2977 14.8535C21.4329 15.4267 21.431 15.96 21.2933 16.0978C21.0516 16.3394 20.7855 16.1338 20.784 15.7044C20.7827 15.3302 20.6144 14.6259 20.4487 14.3011C20.0591 13.5376 19.1931 12.9423 18.2412 12.7837C17.9658 12.7378 17.6865 12.672 17.6207 12.6375C17.4834 12.5655 17.4618 12.304 17.5831 12.1827C17.6955 12.0703 18.1429 12.0797 18.6326 12.2048Z" fill="white"/>
<path d="M18.6376 10.8665C20.222 11.2463 21.4585 12.2184 22.1582 13.6345C22.5363 14.3997 22.6768 14.954 22.7442 15.9456L22.7893 16.6095L22.6084 16.6919C22.4565 16.7611 22.4068 16.7554 22.2974 16.6564C22.196 16.5648 22.1563 16.3993 22.1181 15.9102C22.0092 14.514 21.6243 13.6225 20.7516 12.7448C19.9233 11.9117 18.9947 11.4977 17.6885 11.3791C17.0822 11.324 16.8599 11.1096 17.1295 10.8399C17.2802 10.6893 17.9478 10.7011 18.6376 10.8665Z" fill="white"/>
<path d="M19.0553 13.6983C19.6638 14.0129 19.9664 14.4831 20.0173 15.1927C20.05 15.6481 20.0491 15.6512 19.8588 15.699C19.7071 15.737 19.6411 15.7148 19.5419 15.5923C19.473 15.5072 19.416 15.3564 19.4151 15.257C19.4127 14.9726 19.1792 14.5302 18.9425 14.3616C18.8235 14.2768 18.5967 14.1911 18.4385 14.1709C18.2803 14.1508 18.097 14.1067 18.0312 14.0728C17.8922 14.0014 17.8729 13.7414 17.997 13.6129C18.1083 13.4977 18.7706 13.5512 19.0553 13.6983Z" fill="white"/>
<path fill-rule="evenodd" clip-rule="evenodd" d="M15.9274 0.0701284C12.59 0.375718 9.43126 1.63119 6.69101 3.74124C5.35817 4.76753 3.62728 6.69629 2.62702 8.26966C2.19182 8.95418 1.35343 10.6729 1.04672 11.5094C0.247806 13.6879 -0.125821 16.3195 0.0377647 18.6167C0.295903 22.2428 1.50812 25.4216 3.73572 28.3139C4.80488 29.7021 6.78481 31.4613 8.3751 32.4362C13.5517 35.6095 20.0749 35.8536 25.4716 33.0761C27.2174 32.1776 28.4208 31.2915 29.8891 29.8235C31.6573 28.0555 32.8935 26.1735 33.8084 23.8565C34.7195 21.5488 35.138 18.8304 34.9597 16.3775C34.6351 11.9124 32.834 8.02099 29.6709 4.95073C27.4759 2.82016 24.799 1.30863 21.9237 0.57616C19.8874 0.0574041 17.899 -0.110407 15.9274 0.0701284ZM20.6482 6.72578C22.1044 6.91295 22.9938 7.09423 23.52 7.31123C25.04 7.93794 26.6317 9.47074 27.3285 10.9786C27.899 12.2133 28.2385 15.4021 28.0416 17.6761C27.9381 18.8712 27.6788 20.4204 27.4928 20.9556C26.9302 22.574 25.1809 24.3566 23.4916 25.0329C22.415 25.4639 20.5377 25.7086 17.8954 25.7621L15.9294 25.8019L14.7558 27.0268C14.1105 27.7005 13.4891 28.2999 13.3752 28.3589C12.9604 28.5733 12.398 28.3813 12.141 27.9377C12.0924 27.8538 12.0486 27.3017 12.0276 26.5108L11.9934 25.2209L11.576 25.0641C10.7278 24.7456 9.79381 24.0913 8.99784 23.2584C7.75278 21.9553 7.32134 20.9087 7.02099 18.4628C6.90584 17.5251 6.90516 14.8011 7.01982 13.8793C7.32538 11.4235 7.75305 10.3866 8.99784 9.08375C10.1453 7.88294 11.3107 7.22558 12.7534 6.96542C13.3636 6.85534 14.7044 6.6874 15.6537 6.60202C16.3938 6.53546 19.83 6.62056 20.6482 6.72578ZM15.4826 8.54994C14.3408 8.64318 12.8406 8.88344 12.3627 9.04961C11.7164 9.27427 11.1966 9.63828 10.454 10.3863C9.62995 11.2163 9.35648 11.7089 9.16026 12.7163C8.74524 14.8473 8.72061 17.039 9.08753 19.1969C9.2674 20.2545 9.37537 20.5622 9.77746 21.1634C10.3982 22.0914 11.4942 22.9787 12.4541 23.3306L12.8466 23.4743L12.8647 25.5008C12.8824 27.4855 12.8857 27.5272 13.0217 27.5272C13.1132 27.5272 13.7627 26.9097 14.9285 25.7143L16.6965 23.9014L17.9825 23.8568C20.2625 23.7776 22.1854 23.5129 22.8986 23.18C24.0797 22.6289 25.3395 21.3308 25.6718 20.3227C26.0264 19.2467 26.2518 16.685 26.1349 15.059C26.0518 13.9038 25.8441 12.5422 25.6705 12.0159C25.4095 11.2237 24.3164 9.9635 23.4182 9.4193C22.8432 9.07082 22.3231 8.91306 21.2245 8.75394C19.3555 8.48317 17.2263 8.40751 15.4826 8.54994ZM18.6376 10.8665C20.222 11.2463 21.4585 12.2184 22.1582 13.6345C22.5363 14.3997 22.6768 14.954 22.7442 15.9456L22.7893 16.6095L22.6084 16.6919C22.4565 16.7611 22.4068 16.7554 22.2974 16.6564C22.196 16.5648 22.1563 16.3993 22.1181 15.9102C22.0092 14.514 21.6243 13.6225 20.7516 12.7448C19.9233 11.9117 18.9947 11.4977 17.6885 11.3791C17.0822 11.324 16.8599 11.1096 17.1295 10.8399C17.2802 10.6893 17.9478 10.7011 18.6376 10.8665ZM14.4763 11.7363C14.8745 12.1574 15.7704 13.4676 15.8344 13.7226C15.9243 14.0806 15.7944 14.3642 15.3409 14.8001C14.8241 15.2969 14.8061 15.3925 15.0998 16.0809C15.3816 16.7411 15.8717 17.4432 16.358 17.8833C16.9109 18.3835 17.8736 18.8733 18.3042 18.8733C18.5954 18.8733 18.6382 18.8479 18.9985 18.4619C19.4137 18.0169 19.6941 17.8869 20.0306 17.9835C20.3085 18.0631 21.6135 18.9662 22.0617 19.3889C22.3426 19.6539 22.427 19.7801 22.427 19.9352C22.427 20.4997 21.5319 21.5554 20.8658 21.7766C20.5397 21.8849 20.5076 21.8836 20.0908 21.7458C18.875 21.3434 16.7896 20.1229 15.6879 19.1689C14.72 18.3308 13.7293 17.0607 13.0029 15.7264C12.5896 14.9672 11.9589 13.4528 11.9607 13.2238C11.966 12.512 13.127 11.3481 13.8316 11.3481C14.0804 11.3481 14.1473 11.3884 14.4763 11.7363ZM18.6326 12.2048C19.9911 12.5515 20.9887 13.5431 21.2977 14.8535C21.4329 15.4267 21.431 15.96 21.2933 16.0978C21.0516 16.3394 20.7855 16.1338 20.784 15.7044C20.7827 15.3302 20.6144 14.6259 20.4487 14.3011C20.0591 13.5376 19.1931 12.9423 18.2412 12.7837C17.9658 12.7378 17.6865 12.672 17.6207 12.6375C17.4834 12.5655 17.4618 12.304 17.5831 12.1827C17.6955 12.0703 18.1429 12.0797 18.6326 12.2048ZM19.0553 13.6983C19.6638 14.0129 19.9664 14.4831 20.0173 15.1927C20.05 15.6481 20.0491 15.6512 19.8588 15.699C19.7071 15.737 19.6411 15.7148 19.5419 15.5923C19.473 15.5072 19.416 15.3564 19.4151 15.257C19.4127 14.9726 19.1792 14.5302 18.9425 14.3616C18.8235 14.2768 18.5967 14.1911 18.4385 14.1709C18.2803 14.1508 18.097 14.1067 18.0312 14.0728C17.8922 14.0014 17.8729 13.7414 17.997 13.6129C18.1083 13.4977 18.7706 13.5512 19.0553 13.6983Z" fill="#6F3FAA"/>
</svg>
