<svg width="36" height="36" viewBox="0 0 36 36" fill="none" xmlns="http://www.w3.org/2000/svg">
<path fill-rule="evenodd" clip-rule="evenodd" d="M16.2911 0.0437088C10.6584 0.629437 5.72187 3.6949 2.72305 8.46921C-1.5288 15.2385 -0.73525 24.1789 4.64028 30.0683C7.61524 33.3277 11.3358 35.2763 15.7975 35.9119C16.6305 36.0305 19.3987 36.029 20.2683 35.9095C24.3433 35.3492 27.9927 33.5419 30.7683 30.7096C31.6792 29.7801 31.8732 29.5578 32.4775 28.752C34.278 26.3506 35.4568 23.423 35.9117 20.2235C36.0295 19.3946 36.0295 16.6136 35.9116 15.7851C35.6081 13.6522 35.0564 11.8349 34.1713 10.0526C33.2334 8.16423 32.271 6.81798 30.773 5.29899C27.9941 2.48117 24.5148 0.730746 20.5148 0.138113C19.6511 0.0101037 17.1514 -0.0456934 16.2911 0.0437088ZM20.7612 7.17742C27.0616 8.67901 30.6375 15.0438 28.6112 21.1495C28.0879 22.7261 27.262 24.044 26.0093 25.3014C24.4238 26.8927 22.7099 27.8218 20.4796 28.2989C19.8689 28.4296 19.5136 28.4576 18.4378 28.4599C16.6531 28.4638 15.5443 28.2362 13.9706 27.5433C13.5835 27.3728 13.2185 27.234 13.1593 27.2348C13.1001 27.2356 11.816 27.5631 10.3058 27.9627C8.7956 28.3622 7.5523 28.6842 7.54293 28.678C7.5335 28.672 7.86779 27.4182 8.28579 25.892L9.04576 23.1171L8.71449 22.4453C7.96607 20.9275 7.63784 19.4843 7.64044 17.7225C7.64474 14.7067 8.70943 12.1471 10.8345 10.0434C12.5043 8.39031 14.6137 7.35573 17.0648 6.9877C17.181 6.9703 17.8939 6.96621 18.649 6.97861C19.8178 6.99784 20.1318 7.02743 20.7612 7.17742ZM17.6281 8.78701C14.1801 9.03373 11.0251 11.5029 9.92126 14.8183C9.5643 15.8904 9.46489 16.5231 9.46489 17.7225C9.46489 19.5449 9.81101 20.7639 10.8382 22.5588L11.0054 22.851L10.5655 24.453C10.3236 25.3341 10.1389 26.0683 10.1551 26.0845C10.1713 26.1007 10.9217 25.9192 11.8227 25.6811L13.4609 25.2484L14.3124 25.6739C15.7144 26.3748 16.9331 26.6685 18.443 26.6693C22.2275 26.6715 25.681 24.1741 26.8792 20.569C27.2415 19.4789 27.3306 18.9177 27.331 17.7225C27.3312 16.8608 27.2982 16.4745 27.1744 15.8908C26.411 12.2894 23.5761 9.52957 19.9842 8.89079C19.2206 8.75503 18.5113 8.72382 17.6281 8.78701ZM15.496 12.8839C15.7187 13.134 16.6253 15.3864 16.5785 15.5731C16.5569 15.6592 16.3485 15.9784 16.1156 16.2825C15.8826 16.5866 15.6919 16.8867 15.6919 16.9494C15.6919 17.0823 16.2544 17.917 16.6914 18.4325C17.1644 18.9904 18.055 19.6698 18.8138 20.0513C19.7639 20.529 19.8109 20.5231 20.3542 19.859C21.0306 19.032 21.0932 18.9753 21.2728 19.0278C21.4887 19.0907 23.5025 20.0308 23.7102 20.1655C23.8672 20.2673 23.8756 20.3054 23.8387 20.745C23.817 21.0038 23.7459 21.3493 23.6805 21.5126C23.534 21.8791 23.0024 22.3689 22.4645 22.6333C22.0926 22.816 22.0027 22.8301 21.2188 22.8289C20.4402 22.8277 20.3215 22.8089 19.7051 22.5899C18.6853 22.2276 18.0522 21.9182 17.2861 21.4079C15.8023 20.4194 14.0538 18.4422 13.3334 16.9378C13.0215 16.2866 12.9234 15.791 12.9595 15.0488C12.9934 14.3508 13.1738 13.8896 13.6388 13.3113C14.0137 12.8451 14.2664 12.7241 14.87 12.7221C15.285 12.7207 15.3704 12.7428 15.496 12.8839Z" fill="#67D449"/>
</svg>
